<?xml version="1.0" encoding="utf-8"?>
<!-- Generator: Adobe Illustrator 23.0.1, SVG Export Plug-In . SVG Version: 6.00 Build 0)  -->
<svg version="1.1" id="Camada_1" xmlns="http://www.w3.org/2000/svg" xmlns:xlink="http://www.w3.org/1999/xlink" x="0px" y="0px"
	 viewBox="0 0 1244.1 366.7" style="enable-background:new 0 0 1244.1 366.7;" xml:space="preserve">
<style type="text/css">
	.st0{clip-path:url(#SVGID_2_);fill:#586A7C;}
	.st1{clip-path:url(#SVGID_2_);fill:#2886C7;}
</style>
<g>
	<defs>
		<rect id="SVGID_1_" width="1244.1" height="366.7"/>
	</defs>
	<clipPath id="SVGID_2_">
		<use xlink:href="#SVGID_1_"  style="overflow:visible;"/>
	</clipPath>
	<path class="st0" d="M337.8,268.1h82.3c1.4,0,2.6-1.2,2.6-2.6h-0.1V8.5c0-1.1,0-2.2,0.1-3.3c0-1.6-1.3-3-3-3h0.4h-62.6h0.3
		c-1.6,0-2.8,1.3-2.8,2.8v1.5v5.7v-0.3v151.9c0,0,0.7,10.9-5.2,1.4c-19.8-31.6-90-143.1-101-160.7C246.9,2,244,2.2,244,2.2h0.2
		c-9.9,0.1-24.5,0-39.8-0.1c0,0,1.9,0.1-27.3,0.1c-29.1,0-27.2,25.4-27.2,25.4v29.7c0,29.5-0.3,59-0.2,88.7c0,3.9,0,7.8,0,11.7
		c0,0,4,45.9-41,45.9c-45,0-41-45.9-41-45.9c0.2-48.7-0.6-97.3,0.1-145.9c0-2.3,0.1-4.7,0.1-7c0-1.6-1.3-3-3-3h0.4H2.6h0.3
		c-1.6,0-2.8,1.3-2.8,2.8v1.5c0,1.9,0,3.8,0,5.7c0,52.9-0.3,106.1,0.3,159c0,8.9,1.5,17.6,4,26.5c1.5,4.6,4.9,14.5,5.2,15.1
		c4.6,9.9,10.2,18.5,17.6,26.5c13.9,14.2,31.4,22.8,51.2,26.5c5.6,0.9,10.8,1.8,16.3,2.2c4.6,0.3,9.3,0.3,14,0.5
		c4.7-0.2,9.3-0.2,14-0.5c5.5-0.3,10.8-1.2,16.3-2.2c19.7-3.7,37.3-12.3,51.2-26.5c7.4-8,13-16.7,17.6-26.5
		c0.3-0.6,3.7-10.5,5.2-15.1c2.5-8.9,4-17.6,4-26.5c0.6-52.6,0.3-36.7,0.3-80.6c0-9.1,5.3-1.2,5.3-1.2l111,176.5
		C333.6,265.6,335.1,268.1,337.8,268.1"/>
	<path class="st1" d="M747.5,167.3h-43.9c-4.5,0-8.3,3-9.3,7.4c-6,25.3-22.5,38.6-47.7,38.6c-50.6,0-54.6-59.3-54.6-77.4
		c0-73.7,41.8-79.5,54.6-79.5c37.4,0,44.3,23.8,47.6,35.3c1.2,4.1,5,6.9,9.2,6.9h44.5c2.8,0,5.4-1.2,7.2-3.3
		c1.8-2.1,2.7-4.8,2.3-7.5C751.9,44.2,715.4,0,646.2,0c-72,0-118.5,53.1-118.5,135.2c0,83,45.2,134.5,117.8,134.5
		c58,0,98.6-33.1,111.3-90.7c0.6-2.9-0.1-5.8-1.9-8.1C753.1,168.6,750.4,167.3,747.5,167.3"/>
	<path class="st1" d="M892.3,0c-20.6,0-123.6,6.5-123.6,134.9s103,134.9,123.6,134.9c20.6,0,123.6-6.5,123.6-134.9S913,0,892.3,0
		 M952.7,134.9c0,73.7-46.2,79.5-60.4,79.5s-60.4-5.7-60.4-79.5c0-73.7,46.2-79.5,60.4-79.5S952.7,61.1,952.7,134.9"/>
	<path class="st1" d="M1175.9,112.5l-59.7-14.7c-11.4-2.7-21.6-6.2-21.6-20.2c0-22.6,30.9-23.8,37.1-23.8
		c35.5,0,42.2,16.7,44.2,29.2c0.7,4.4,4.5,7.6,8.9,7.6h42.3c2.5,0,4.9-1,6.6-2.9c1.7-1.8,2.6-4.3,2.4-6.7
		c-2.3-37.1-30.2-80.5-100.8-80.5c-92.4,0-99.6,61.9-99.6,80.8c0,58.2,41.6,67.9,81.9,77.3l26.2,6.1c27.2,6.5,40,11,40,25
		c0,17.4-15.3,26.2-45.6,26.2c-35.6,0-44.7-17-46.1-31.3c-0.4-4.7-4.3-8.2-9-8.2h-42.1c-2.5,0-4.8,1-6.5,2.8
		c-1.7,1.8-2.6,4.2-2.5,6.6c1,25.1,13.8,83.4,110,83.4c17,0,101.9-4.1,101.9-85.6C1244.1,135.7,1209.6,120.8,1175.9,112.5"/>
	<path class="st0" d="M510,11.5c0-5.2-4.2-9.4-9.4-9.4h-48.7c-5.2,0-9.4,4.2-9.4,9.4v51H510V11.5z"/>
	<path class="st0" d="M442.6,258.7c0,5.2,4.2,9.4,9.4,9.4h48.7c5.2,0,9.4-4.2,9.4-9.4v-190h-67.5V258.7z"/>
	<path class="st0" d="M27.1,366.7c-15.3,0-27.1-12.1-27.1-28C0,323.1,11.8,311,27.1,311c12.2,0,22.8,7.8,24.8,18.8h-8.2
		c-1.9-6.8-8.6-11.5-16.5-11.5c-11,0-19.4,8.9-19.4,20.5c0,11.7,8.5,20.8,19.4,20.8c8.1,0,14.8-5,16.6-12.2H52
		C49.8,358.8,39.6,366.7,27.1,366.7L27.1,366.7z"/>
	<path class="st0" d="M121.1,338.7c0,15.9-11.9,28-27.4,28c-15.5,0-27.4-12.1-27.4-28c0-15.7,11.9-27.7,27.4-27.7
		C109.3,311,121.1,323.1,121.1,338.7 M74,338.7c0,11.7,8.6,20.8,19.7,20.8c11.2,0,19.8-9,19.8-20.8c0-11.6-8.6-20.5-19.8-20.5
		C82.6,318.2,74,327.2,74,338.7"/>
	<polygon class="st0" points="144.6,311.8 172.6,351.9 172.6,311.8 180.1,311.8 180.1,366 173.4,366 145.4,325.9 145.4,366 
		137.9,366 137.9,311.8 	"/>
	<path class="st0" d="M216.9,366.7c-11.5,0-19.8-7.5-19.8-17.9h7.4c0,6.5,5.2,10.9,12.5,10.9c6.8,0,11.8-3.6,11.8-8.8
		c0-13.9-30.8-5.2-30.8-25.1c0-8.7,7.6-14.9,18.1-14.9c11.9,0,18.4,7.4,18.4,16.3h-7.6c-0.2-5.4-4.6-9.3-11.1-9.3
		c-6.2,0-10.5,3.1-10.5,7.8c0,12.8,30.9,3.9,30.9,25.1C236.1,360.1,227.9,366.7,216.9,366.7L216.9,366.7z"/>
	<polygon class="st0" points="289.1,318.9 271.9,318.9 271.9,366 264.4,366 264.4,318.9 247.2,318.9 247.2,311.8 289.1,311.8 	"/>
	<path class="st0" d="M335.5,366l-14.3-20.3h-9.3V366h-7.5v-54.2h19.1c10.7,0,17.9,7.4,17.9,16.9c0,7.9-4.7,14.3-12.3,16.3l15.4,21
		L335.5,366z M311.9,339.2h11c6.8,0,11.1-4.5,11.1-10.2c0-5.6-4.3-10-11.1-10h-11L311.9,339.2z"/>
	<path class="st0" d="M357.3,345.5v-33.7h7.5v33.7c0,8,5.7,14,13.4,14c7.7,0,13.4-5.9,13.4-14v-33.7h7.5v33.7
		c0,12.2-8.9,21.2-20.9,21.2C366.2,366.7,357.3,357.7,357.3,345.5"/>
	<polygon class="st0" points="456.3,318.9 439.1,318.9 439.1,366 431.6,366 431.6,318.9 414.4,318.9 414.4,311.8 456.3,311.8 	"/>
	<path class="st0" d="M519.1,338.7c0,15.9-11.9,28-27.4,28c-15.5,0-27.4-12.1-27.4-28c0-15.7,11.9-27.7,27.4-27.7
		C507.2,311,519.1,323.1,519.1,338.7 M471.9,338.7c0,11.7,8.6,20.8,19.7,20.8c11.2,0,19.8-9,19.8-20.8c0-11.6-8.6-20.5-19.8-20.5
		C480.5,318.2,471.9,327.2,471.9,338.7"/>
	<path class="st0" d="M566.9,366l-14.3-20.3h-9.3V366h-7.5v-54.2H555c10.7,0,17.9,7.4,17.9,16.9c0,7.9-4.7,14.3-12.3,16.3l15.4,21
		L566.9,366z M543.3,339.2h11c6.8,0,11.1-4.5,11.1-10.2c0-5.6-4.3-10-11.1-10h-11L543.3,339.2z"/>
	<path class="st0" d="M622.4,353.9h-24.3l-4.7,12h-7.9l21.6-54.2h6.4l21.7,54.2h-8.1L622.4,353.9z M619.6,346.8l-9.3-23.8l-9.4,23.8
		H619.6z"/>
	<polygon class="st0" points="706.1,311.8 706.1,318.9 682.4,318.9 682.4,333.7 703.5,333.7 703.5,340.9 682.4,340.9 682.4,358.9 
		706.1,358.9 706.1,366 674.9,366 674.9,311.8 	"/>
	<path class="st0" d="M748.8,345.5v-33.7h7.5v33.7c0,8,5.7,14,13.4,14c7.7,0,13.4-5.9,13.4-14v-33.7h7.5v33.7
		c0,12.2-8.9,21.2-20.9,21.2C757.6,366.7,748.8,357.7,748.8,345.5"/>
	<path class="st0" d="M840.3,366L826,345.7h-9.3V366h-7.5v-54.2h19.1c10.7,0,17.9,7.4,17.9,16.9c0,7.9-4.7,14.3-12.3,16.3l15.4,21
		L840.3,366z M816.8,339.2h11c6.8,0,11.1-4.5,11.1-10.2c0-5.6-4.3-10-11.1-10h-11L816.8,339.2z"/>
	<path class="st0" d="M864,311.8h19.2c8.8,0,15.8,6.2,15.8,13.8c0,5.5-3.8,10.6-8.7,11.7c6.5,0.9,11.4,6.5,11.4,13.5
		c0,8.5-7.2,15.1-16.2,15.1H864V311.8z M883,334.8c4.7,0,8.5-3.6,8.5-8.2c0-4.3-3.8-7.7-8.5-7.7h-11.6v15.9H883z M885.1,358.8
		c5.2,0,9-4,9-9c0-5-4-9-9-9h-13.8v17.9L885.1,358.8z"/>
	<path class="st0" d="M949,353.9h-24.3l-4.7,12h-7.9l21.6-54.2h6.4l21.7,54.2h-8.1L949,353.9z M946.3,346.8l-9.3-23.8l-9.4,23.8
		H946.3z"/>
	<polygon class="st0" points="982.7,311.8 1010.7,351.9 1010.7,311.8 1018.2,311.8 1018.2,366 1011.5,366 983.5,325.9 983.5,366 
		976,366 976,311.8 	"/>
	<rect x="1037" y="311.8" class="st0" width="7.5" height="54.2"/>
	<path class="st0" d="M1081.2,366.7c-11.5,0-19.8-7.5-19.8-17.9h7.4c0,6.5,5.2,10.9,12.5,10.9c6.8,0,11.8-3.6,11.8-8.8
		c0-13.9-30.8-5.2-30.8-25.1c0-8.7,7.6-14.9,18.1-14.9c11.9,0,18.4,7.4,18.4,16.3h-7.6c-0.2-5.4-4.6-9.3-11.1-9.3
		c-6.2,0-10.5,3.1-10.5,7.8c0,12.8,30.9,3.9,30.9,25.1C1100.4,360.1,1092.2,366.7,1081.2,366.7L1081.2,366.7z"/>
	<polygon class="st0" points="1117,311.8 1125.9,311.8 1145.2,355 1165,311.8 1172.6,311.8 1172.6,366 1165.2,366 1165.2,326.6 
		1147.5,366 1142,366 1124.5,326.6 1124.5,366 1117,366 	"/>
	<path class="st0" d="M1244.1,338.7c0,15.9-11.9,28-27.4,28c-15.5,0-27.4-12.1-27.4-28c0-15.7,11.9-27.7,27.4-27.7
		C1232.3,311,1244.1,323.1,1244.1,338.7 M1197,338.7c0,11.7,8.6,20.8,19.7,20.8c11.2,0,19.8-9,19.8-20.8c0-11.6-8.6-20.5-19.8-20.5
		C1205.6,318.2,1197,327.2,1197,338.7"/>
</g>
</svg>
