<?xml version="1.0" encoding="utf-8"?>
<!-- Generator: Adobe Illustrator 23.0.1, SVG Export Plug-In . SVG Version: 6.00 Build 0)  -->
<svg version="1.1" id="Camada_1" xmlns="http://www.w3.org/2000/svg" xmlns:xlink="http://www.w3.org/1999/xlink" x="0px" y="0px"
	 viewBox="0 0 289.4 248.1" style="enable-background:new 0 0 289.4 248.1;" xml:space="preserve">
<style type="text/css">
	.st0{clip-path:url(#SVGID_2_);fill:#080717;}
	.st1{clip-path:url(#SVGID_2_);fill:#FFFFFF;}
	.st2{clip-path:url(#SVGID_2_);fill:#66CCFF;}
</style>
<g>
	<defs>
		<rect id="SVGID_1_" width="289.4" height="248.1"/>
	</defs>
	<clipPath id="SVGID_2_">
		<use xlink:href="#SVGID_1_"  style="overflow:visible;"/>
	</clipPath>
	<path class="st0" d="M70.5,133l-22.2,4.8c-10.9,2.4-20,9.6-24.8,19.6L3.5,199.2c-12.8,26.6,12,55.8,40.3,47.5l31.8-9.4h104.2
		l-18.1-88.4c-3.3-15.9-18.3-26.5-34.4-24.2L70.5,133z"/>
	<path class="st1" d="M198.1,185.2l0.3-20.8c0.1-9.4,3.9-18.3,10.5-24.9l19-18.9c1.7-1.7,4.2-2.2,6.4-1.2c3.4,1.4,4.6,5.5,2.6,8.6
		l-10.3,15.6l24.5,8.4l29.9-9.6c2.8-0.9,5.8,0.4,7.1,2.9v0c0.8,1.6,0.1,3.5-1.5,4.3l-54.2,25.2l-2.7,15L198.1,185.2z"/>
	<path class="st0" d="M229.8,190.9c-0.1,0-0.1,0-0.2,0c-0.5-0.1-0.9-0.6-0.8-1.2l2.7-15c0.1-0.3,0.3-0.6,0.6-0.7l54.2-25.2
		c0.5-0.2,0.9-0.7,1.1-1.3c0.2-0.6,0.2-1.2-0.1-1.7c-1.1-2.2-3.6-3.2-5.9-2.4l-29.9,9.6c-0.2,0.1-0.4,0.1-0.6,0l-24.5-8.4
		c-0.3-0.1-0.5-0.3-0.6-0.6c-0.1-0.3-0.1-0.6,0.1-0.9l10.3-15.6c0.8-1.2,1-2.7,0.6-4.1c-0.4-1.4-1.4-2.5-2.7-3.1
		c-1.8-0.8-3.9-0.4-5.3,1l-19,18.9c-6.5,6.5-10.1,15.1-10.2,24.2l-0.3,20.8c0,0.6-0.4,1-1,1c-0.6,0-1-0.5-1-1l0.3-20.8
		c0.1-9.7,4-18.8,10.8-25.6l19-18.9c2-2,4.9-2.5,7.5-1.5c1.9,0.8,3.3,2.4,3.9,4.3c0.6,2,0.3,4-0.8,5.7l-9.6,14.5l23,7.9l29.6-9.5
		c3.2-1,6.7,0.4,8.3,3.4c0.5,1,0.6,2.2,0.2,3.2c-0.4,1.1-1.1,1.9-2.2,2.4l-53.7,25l-2.6,14.5C230.6,190.5,230.2,190.9,229.8,190.9"
		/>
	<path class="st1" d="M264.3,153.6l12.5-19c1.2-1.8-0.2-4.1-2.3-4c-2.7,0.1-5.2,1.3-6.9,3.4l-14.9,16.7L264.3,153.6z"/>
	<path class="st0" d="M264.3,154.6c-0.2,0-0.4-0.1-0.6-0.2c-0.5-0.3-0.6-0.9-0.3-1.4l12.5-19c0.3-0.5,0.4-1.1,0.1-1.6
		c-0.3-0.5-0.8-0.8-1.4-0.8c-2.4,0.1-4.7,1.2-6.2,3l-15,16.8c-0.4,0.4-1,0.4-1.4,0.1c-0.4-0.4-0.4-1-0.1-1.4l14.9-16.7
		c1.9-2.2,4.7-3.6,7.6-3.7c1.4-0.1,2.6,0.6,3.3,1.8c0.7,1.2,0.6,2.6-0.1,3.7l-12.5,19C265,154.4,264.7,154.6,264.3,154.6"/>
	<path class="st1" d="M224.2,162.2l17.8-8l10.6-18.7c1.5-2.6,4.1-4.1,7.1-4.2c1.9,0,3.2,1.9,2.5,3.6l-9.7,24.6L224.2,162.2z"/>
	<path class="st0" d="M224.2,163.2c-0.4,0-0.7-0.2-0.9-0.6c-0.2-0.5,0-1.1,0.5-1.3l17.5-7.9l10.5-18.4c1.6-2.8,4.7-4.6,7.9-4.7
		c1.2,0,2.4,0.6,3.1,1.6c0.7,1,0.8,2.3,0.4,3.4l-9.7,24.6c-0.2,0.5-0.8,0.8-1.3,0.6c-0.5-0.2-0.8-0.8-0.6-1.3l9.7-24.6
		c0.2-0.5,0.1-1.1-0.2-1.6c-0.3-0.5-0.8-0.7-1.4-0.7c-2.6,0-5,1.5-6.2,3.7l-10.6,18.7c-0.1,0.2-0.3,0.3-0.5,0.4l-17.8,8
		C224.5,163.2,224.4,163.2,224.2,163.2"/>
	<path class="st0" d="M65.9,91c0,10.5-8.5,18.9-18.9,18.9S28,101.5,28,91c0-10.5,8.5-18.9,18.9-18.9S65.9,80.6,65.9,91"/>
	<path class="st0" d="M82.6,99c0,10.5-8.5,18.9-18.9,18.9c-10.5,0-18.9-8.5-18.9-18.9c0-10.5,8.5-18.9,18.9-18.9
		C74.1,80.1,82.6,88.6,82.6,99"/>
	<path class="st0" d="M138.9,88.9c0,10.5-8.5,18.9-18.9,18.9S101,99.4,101,88.9c0-10.5,8.5-18.9,18.9-18.9S138.9,78.5,138.9,88.9"/>
	<path class="st0" d="M144,69.9c0,10.5-8.5,18.9-18.9,18.9c-10.5,0-18.9-8.5-18.9-18.9c0-10.5,8.5-18.9,18.9-18.9
		C135.5,50.9,144,59.4,144,69.9"/>
	
		<rect x="73.5" y="78.7" transform="matrix(0.9882 -0.1531 0.1531 0.9882 -15.4955 16.0038)" class="st1" width="45.2" height="59.8"/>
	<path class="st0" d="M78.4,142.6c-0.5,0-0.9-0.4-1-0.8l-9.2-59c0-0.3,0-0.5,0.2-0.7c0.2-0.2,0.4-0.4,0.7-0.4l44.6-6.9
		c0.5-0.1,1.1,0.3,1.1,0.8l9.2,59.1c0,0.3,0,0.5-0.2,0.7c-0.2,0.2-0.4,0.4-0.7,0.4l-44.6,6.9C78.5,142.6,78.4,142.6,78.4,142.6
		 M70.4,83.4l8.8,57.1l42.7-6.6l-8.8-57.1L70.4,83.4z"/>
	<path class="st0" d="M120.5,137l-38.9,6c-4.7,0.7-9-2.5-9.7-7.1l-0.4-2.6c-0.7-4.7,2.5-9,7.1-9.7l38.9-6c4.7-0.7,9,2.5,9.7,7.1
		l0.4,2.6C128.3,132,125.1,136.3,120.5,137"/>
	<path class="st0" d="M85.8,104.1L85.8,104.1c-19.4,0-35-15.7-35-35V57.9c0-19.4,15.7-35,35-35s35,15.7,35,35V69
		C120.8,88.4,105.1,104.1,85.8,104.1"/>
	<path class="st0" d="M94.3,84.2L94.3,84.2c-16.2,0-29.2-13.1-29.2-29.2v-6c0-16.2,13.1-29.2,29.2-29.2c16.2,0,29.2,13.1,29.2,29.2
		v6C123.6,71.1,110.5,84.2,94.3,84.2"/>
	<path class="st0" d="M91.3,105.1c-16.8,0-30.5-13.7-30.5-30.5c0-0.6,0.4-1,1-1c0.6,0,1,0.4,1,1c0,15.7,12.8,28.5,28.5,28.5
		c6.6,0,12.9-2.3,18-6.4c0.4-0.3,1.1-0.3,1.4,0.1c0.3,0.4,0.3,1.1-0.1,1.4C105.1,102.6,98.3,105.1,91.3,105.1"/>
	<path class="st0" d="M120.1,59.2c-0.5,0-0.9-0.3-1-0.8c-0.8-4.8,3.1-7.2,3.3-7.3c0.5-0.3,1.1-0.1,1.4,0.3c0.3,0.5,0.1,1.1-0.3,1.4
		c-0.1,0.1-2.9,1.8-2.3,5.2c0.1,0.5-0.3,1.1-0.8,1.2C120.2,59.2,120.2,59.2,120.1,59.2"/>
	<path class="st1" d="M129.7,53.1c-1.1-3.9-5.2-6.1-9.1-4.9l-4.3,1.3c-5.2-8.3-14.5-13.8-25-13.8c-15.7,0-28.6,12.3-29.5,27.8
		l-4.2-0.1c-4-0.1-7.4,3.1-7.4,7.2c-0.1,4,3.1,7.4,7.2,7.4l4.6,0.1c1.7,14.7,14.2,26,29.3,26c16.3,0,29.5-13.2,29.5-29.5v-9.4
		c0-0.6,0-1.2-0.1-1.8l4-1.2C128.6,61,130.8,56.9,129.7,53.1"/>
	<path class="st0" d="M91.3,105.1c-15.2,0-28-11.1-30.2-26.1l-3.8-0.1c-4.6-0.1-8.2-3.9-8.1-8.4c0.1-4.6,3.9-8.2,8.4-8.1l3.2,0.1
		c1.4-15.7,14.6-27.8,30.4-27.8c10.3,0,19.8,5.1,25.5,13.7l3.6-1.1c2.1-0.6,4.4-0.4,6.3,0.7c1.9,1.1,3.4,2.8,4,4.9
		c0.6,2.1,0.4,4.4-0.7,6.3c-1.1,1.9-2.8,3.4-4.9,4l-3.2,1c0,0.4,0,0.7,0,1.1v9.4C121.8,91.4,108.1,105.1,91.3,105.1 M57.5,64.3
		c-1.6,0-3.2,0.6-4.4,1.8c-1.2,1.2-1.9,2.7-1.9,4.4c-0.1,3.5,2.7,6.4,6.2,6.4L62,77c0.5,0,0.9,0.4,1,0.9
		c1.7,14.3,13.9,25.2,28.3,25.2c15.7,0,28.5-12.8,28.5-28.5v-9.4c0-0.6,0-1.2-0.1-1.7c0-0.5,0.3-0.9,0.7-1l4-1.2
		c3.3-1,5.2-4.5,4.2-7.8c-0.5-1.6-1.6-2.9-3-3.7c-1.5-0.8-3.2-1-4.8-0.5l-4.3,1.3c-0.4,0.1-0.9,0-1.1-0.4
		c-5.3-8.4-14.3-13.4-24.2-13.4c-15.1,0-27.6,11.8-28.5,26.9c0,0.5-0.5,1-1,0.9l-4.2-0.1C57.5,64.3,57.5,64.3,57.5,64.3"/>
	<path class="st0" d="M60.7,73.9c-0.5,0-0.9-0.4-1-0.9c-0.4-3.5-3.6-4.4-3.6-4.4c-0.5-0.1-0.8-0.7-0.7-1.2c0.1-0.5,0.7-0.8,1.2-0.7
		c0.2,0.1,4.6,1.3,5.1,6.1c0.1,0.5-0.3,1-0.9,1.1C60.8,73.9,60.8,73.9,60.7,73.9"/>
	<path class="st0" d="M83,56.9c0.4,1.1-1.8,3-4.9,4.2c-3.1,1.2-6,1.3-6.5,0.1c-0.4-1.1,1.8-3,4.9-4.2C79.6,55.8,82.5,55.7,83,56.9"
		/>
	<path class="st0" d="M105.5,55.2c-0.1,1.2-2.9,2-6.2,1.8c-3.4-0.2-6-1.4-5.9-2.6c0.1-1.2,2.9-2,6.2-1.8
		C103,52.8,105.6,54,105.5,55.2"/>
	<path class="st0" d="M75,68.8c-0.2,0-0.4-0.1-0.6-0.2c-0.5-0.3-0.6-0.9-0.3-1.4c2.7-4,7.2-2.9,9.2-1.7c0.5,0.3,0.6,0.9,0.4,1.4
		c-0.3,0.5-0.9,0.6-1.4,0.4c-0.2-0.1-4.2-2.3-6.6,1.1C75.6,68.6,75.3,68.8,75,68.8"/>
	<path class="st0" d="M97.9,63c0.4,1.6,1.5,2.7,2.5,2.5c1-0.2,1.6-1.7,1.2-3.3c-0.4-1.6-1.5-2.7-2.5-2.5
		C98.1,59.9,97.5,61.4,97.9,63"/>
	<path class="st0" d="M92,75.7c0,0-0.1,0-0.1,0c-1.4-0.1-2.7-0.9-3.5-2c-0.8-1.1-1.1-2.6-0.9-3.9l1.6-7.8c0.1-0.5,0.6-0.9,1.2-0.8
		c0.5,0.1,0.9,0.6,0.8,1.2l-1.6,7.8c-0.2,0.8,0,1.7,0.5,2.4c0.5,0.7,1.2,1.1,2.1,1.2c0.5,0.1,0.9,0.5,0.9,1.1
		C92.9,75.3,92.5,75.7,92,75.7"/>
	<path class="st0" d="M96.9,83.9c-0.5,0-0.9-0.4-1-0.9c-0.1-0.5,0.3-1,0.9-1.1c1.5-0.2,2.5-0.8,3.2-1.8c1.6-2.5,0.5-6.6,0.5-6.7
		c-0.1-0.5,0.2-1.1,0.7-1.2c0.5-0.1,1.1,0.2,1.2,0.7c0.1,0.2,1.4,5.1-0.7,8.3c-1,1.5-2.5,2.4-4.6,2.7C96.9,83.9,96.9,83.9,96.9,83.9
		"/>
	<path class="st0" d="M60.2,63.1L60.2,63.1c13.6-3.5,23.6-15.8,23.6-30.5v-0.1C70.2,36.1,60.2,48.4,60.2,63.1"/>
	<path class="st0" d="M74,60.1c-0.1,0-0.2,0-0.3-0.1c-0.3-0.1-0.5-0.3-0.6-0.6c-0.2-0.5,0.1-1,0.6-1.2c7.4-4.8,10.8-13.9,8.1-22.4
		l1.9-0.6c3,9.4-0.8,19.6-9.1,24.8C74.3,60.1,74.1,60.1,74,60.1"/>
	<path class="st0" d="M116.1,46.5L116.1,46.5c-13.4,4-28.3-1.4-35.9-14l0,0C93.7,28.5,108.6,33.9,116.1,46.5"/>
	<path class="st1" d="M253.1,34.5C238.7,5,202.9-7.4,173.3,7c-29.6,14.4-41.9,50.2-27.5,79.7c14.4,29.6,50.2,41.9,79.8,27.6
		C255.1,99.9,267.5,64.1,253.1,34.5 M221.4,105.8c-24.9,12.1-55,1.7-67.1-23.2c-12.1-24.9-1.7-55,23.1-67.1
		c24.9-12.1,55-1.7,67.1,23.2C256.7,63.6,246.3,93.7,221.4,105.8"/>
	<path class="st0" d="M199.6,121.3c-6.7,0-13.4-1.1-19.9-3.4c-15.3-5.3-27.7-16.2-34.8-30.8c-14.6-30.1-2.1-66.4,28-81.1
		C203-8.5,239.4,4,254,34.1h0c14.6,30.1,2.1,66.4-28,81.1C217.6,119.3,208.6,121.3,199.6,121.3 M199.3,2c-8.6,0-17.3,1.9-25.6,5.9
		c-29.1,14.2-41.2,49.3-27.1,78.4c6.8,14.1,18.8,24.6,33.6,29.8c14.8,5.1,30.7,4.2,44.8-2.7c29.1-14.2,41.2-49.3,27.1-78.4
		C242.1,14.1,221.1,2,199.3,2 M199.5,111.8c-19,0-37.3-10.6-46.1-28.8c-12.3-25.4-1.8-56,23.6-68.4c25.4-12.3,56.1-1.7,68.4,23.6
		c12.3,25.4,1.7,56.1-23.6,68.4h0C214.7,110.2,207,111.8,199.5,111.8 M199.4,11.5c-7.2,0-14.5,1.6-21.4,5
		c-24.4,11.9-34.5,41.4-22.7,65.7c11.9,24.4,41.4,34.6,65.7,22.7c24.4-11.9,34.6-41.4,22.7-65.7C235.2,21.7,217.6,11.5,199.4,11.5
		 M221.4,105.8L221.4,105.8L221.4,105.8z"/>
	<path class="st0" d="M175.4,148c-0.1,0-0.2,0-0.3-0.1c-0.5-0.2-0.8-0.7-0.6-1.3l9.4-27.1c0.2-0.5,0.7-0.8,1.3-0.6
		c0.5,0.2,0.8,0.7,0.6,1.3l-9.4,27.1C176.2,147.7,175.8,148,175.4,148"/>
	<path class="st0" d="M166.5,144.9c-0.1,0-0.2,0-0.3-0.1c-0.5-0.2-0.8-0.7-0.6-1.3l9.4-27.1c0.2-0.5,0.7-0.8,1.3-0.6
		c0.5,0.2,0.8,0.7,0.6,1.3l-9.4,27.1C167.3,144.6,166.9,144.9,166.5,144.9"/>
	<path class="st2" d="M148.3,208.7L148.3,208.7c-7.6-2.6-11.6-10.9-9-18.4l23.7-68.7l27.4,9.5l-23.7,68.7
		C164.1,207.3,155.9,211.4,148.3,208.7"/>
	<path class="st1" d="M136.4,153.7l13.8-24.5c1.1-2,3.8-2.7,5.7-1.4c3,2,4.5,5.7,3.6,9.3l-2.4,9.7L136.4,153.7z"/>
	<path class="st0" d="M136.4,154.7c-0.3,0-0.6-0.1-0.8-0.4c-0.3-0.3-0.3-0.8-0.1-1.1l13.8-24.5c0.7-1.2,1.9-2.1,3.2-2.4
		c1.4-0.3,2.8-0.1,3.9,0.7c3.4,2.3,5,6.4,4,10.3l-2.4,9.7c-0.1,0.3-0.3,0.6-0.7,0.7l-20.7,6.9C136.6,154.7,136.5,154.7,136.4,154.7
		 M153.7,128.2c-0.2,0-0.5,0-0.7,0.1c-0.8,0.2-1.5,0.7-1.9,1.5l-12.5,22.2l17.7-5.9l2.3-9.1c0.8-3.1-0.5-6.4-3.2-8.2
		C154.9,128.3,154.3,128.2,153.7,128.2"/>
	<path class="st1" d="M149.4,144.7l32.9-8.3c1.8-0.5,3.6,0.8,3.8,2.7l0.2,1.8c0.3,3.5-1.5,6.8-4.6,8.4l-8.3,4.3l-0.4,1l11.3-1.4
		c2.5-0.3,4.7,1.5,5,3.9c0.4,3.8-2,7.2-5.5,8.2c2.2,0,4,1.6,4.3,3.8c0.5,3.8-1.9,7.3-5.5,8.3c2.2,0,4,1.6,4.3,3.9
		c0.5,4.2-2.5,8.1-6.8,8.6l-22.9,2.7l-1.5,3.6c-1.8,4.3-5.3,7.5-9.7,8.9l-70.2,32c0,0-27.7-29.2,2.9-53.3c0.1-0.1,0.2-0.1,0.3-0.1
		l48.9-14.5l0.6-2.8C130.6,155.9,138.8,147.4,149.4,144.7"/>
	<path class="st0" d="M75.6,238.3c-0.3,0-0.5-0.1-0.7-0.3c-0.5-0.6-12.9-13.8-11.7-30c0.7-9.3,5.6-17.6,14.7-24.7
		c0.3-0.2,0.5-0.3,0.7-0.3l48.4-14.3l0.5-2.3c2.4-11.1,10.7-19.8,21.7-22.6l32.9-8.3c1.2-0.3,2.4-0.1,3.3,0.6c1,0.7,1.6,1.8,1.7,2.9
		l0.2,1.8c0.3,3.9-1.7,7.6-5.1,9.4l-5.9,3.1l7.9-0.9c1.5-0.2,2.9,0.2,4.1,1.2c1.1,0.9,1.9,2.2,2,3.7c0.3,3.3-1.2,6.3-3.7,8.1
		c1.4,0.8,2.3,2.3,2.5,3.9c0.4,3.3-1.1,6.4-3.7,8.2c1.4,0.8,2.3,2.3,2.5,3.9c0.3,2.3-0.4,4.6-1.8,6.4c-1.4,1.8-3.5,3-5.8,3.3
		l-22.3,2.7l-1.3,3c-1.9,4.5-5.6,8-10.3,9.5l-70.2,32C75.9,238.3,75.8,238.3,75.6,238.3 M79,184.9c-8.5,6.8-13.2,14.6-13.8,23.2
		c-1,13.6,8.4,25.4,10.7,28l69.6-31.7c0,0,0.1,0,0.1,0c4.1-1.3,7.4-4.3,9.1-8.3l1.5-3.6c0.1-0.3,0.4-0.6,0.8-0.6l22.9-2.7
		c1.8-0.2,3.4-1.1,4.5-2.5c1.1-1.4,1.6-3.2,1.4-5c-0.2-1.7-1.6-2.9-3.3-3c-0.5,0-0.9-0.4-1-0.9c-0.1-0.5,0.2-1,0.7-1.1
		c3.2-0.9,5.2-4,4.8-7.2c-0.2-1.7-1.6-2.9-3.3-3c-0.5,0-0.9-0.4-1-0.9c-0.1-0.5,0.2-1,0.7-1.1c3.1-0.9,5.1-3.9,4.8-7.1
		c-0.1-0.9-0.5-1.7-1.3-2.3c-0.7-0.6-1.7-0.8-2.6-0.7l-11.3,1.4c-0.4,0-0.7-0.1-0.9-0.4c-0.2-0.3-0.3-0.7-0.1-1l0.4-1
		c0.1-0.2,0.3-0.4,0.5-0.5l8.3-4.3c2.7-1.4,4.3-4.3,4.1-7.4l-0.2-1.8c-0.1-0.6-0.4-1.1-0.8-1.5c-0.5-0.3-1.1-0.5-1.7-0.3l-32.9,8.3
		l-0.2-1l0.2,1c-10.3,2.6-18.1,10.7-20.3,21.1l-0.6,2.8c-0.1,0.4-0.3,0.6-0.7,0.8l-48.9,14.5C79.1,184.9,79,184.9,79,184.9
		 M79.1,184.8L79.1,184.8L79.1,184.8z M127.8,169.4L127.8,169.4L127.8,169.4z"/>
	<path class="st0" d="M154.8,170c-0.5,0-0.9-0.4-1-0.9c-0.1-0.5,0.3-1,0.9-1.1l27.5-3.3c0.5-0.1,1,0.3,1.1,0.9
		c0.1,0.5-0.3,1-0.9,1.1l-27.5,3.3C154.8,170,154.8,170,154.8,170"/>
	<path class="st0" d="M154.9,157.8c-0.5,0-0.9-0.4-1-0.9c-0.1-0.5,0.3-1,0.9-1.1l29.3-3.5c0.5-0.1,1,0.3,1.1,0.9
		c0.1,0.5-0.3,1-0.9,1.1l-29.3,3.5C155,157.8,155,157.8,154.9,157.8"/>
	<path class="st0" d="M155.6,181.8c-0.5,0-0.9-0.4-1-0.9c-0.1-0.5,0.3-1,0.9-1.1l29.3-3.5c0.5-0.1,1,0.3,1.1,0.9
		c0.1,0.5-0.3,1-0.9,1.1l-29.3,3.5C155.7,181.8,155.7,181.8,155.6,181.8"/>
	<path class="st1" d="M29.1,196.4c-0.5,0-0.9-0.3-1-0.8c-0.1-0.5,0.2-1.1,0.7-1.2L78.3,183c0.5-0.1,1.1,0.2,1.2,0.7
		c0.1,0.5-0.2,1.1-0.7,1.2l-49.4,11.4C29.3,196.4,29.2,196.4,29.1,196.4"/>
	<path class="st2" d="M220.8,65.9c-2.4,9.7-11.2,16.9-21.6,16.9c-12.3,0-22.3-10-22.3-22.3c0-10.7,7.5-19.6,17.6-21.8V15.4
		c-22.8,2.4-40.6,21.7-40.6,45.1c0,25,20.3,45.3,45.3,45.3c23.2,0,42.3-17.4,45-39.9H220.8z"/>
	<path class="st1" d="M222.5,60.1c-0.2-12.5-10.1-22.6-22.5-23v-21c24,0.4,43.4,20,43.6,44H222.5z"/>
	<path class="st0" d="M201,17.2c22.6,0.9,40.9,19.3,41.5,42h-19c-0.7-12.2-10.4-22.1-22.5-22.9V17.2z M199.2,15.1
		c-0.1,0-0.2,0-0.2,0v23c0.1,0,0.2,0,0.2,0c12.3,0,22.3,10,22.3,22.3c0,0.2,0,0.5,0,0.7h23c0-0.2,0-0.4,0-0.7
		C244.6,35.4,224.3,15.1,199.2,15.1"/>
	<path class="st0" d="M215.9,75.3l16.3,16.3c6.5-6.9,10.9-15.8,12.1-25.7h-23.4C220,69.4,218.2,72.6,215.9,75.3"/>
	<polygon class="st0" points="231.9,236.4 190,236.4 197.2,182.2 231.1,186.8 	"/>
</g>
</svg>
