<?xml version="1.0" encoding="utf-8"?>
<!-- Generator: Adobe Illustrator 23.0.1, SVG Export Plug-In . SVG Version: 6.00 Build 0)  -->
<svg version="1.1" id="Camada_1" xmlns="http://www.w3.org/2000/svg" xmlns:xlink="http://www.w3.org/1999/xlink" x="0px" y="0px"
	 viewBox="0 0 226.7 230.5" style="enable-background:new 0 0 226.7 230.5;" xml:space="preserve">
<style type="text/css">
	.st0{clip-path:url(#SVGID_2_);fill:#66CCFF;}
	.st1{clip-path:url(#SVGID_2_);fill:#080717;}
	.st2{clip-path:url(#SVGID_2_);fill:#FFFFFF;}
</style>
<g>
	<defs>
		<rect id="SVGID_1_" width="226.7" height="230.5"/>
	</defs>
	<clipPath id="SVGID_2_">
		<use xlink:href="#SVGID_1_"  style="overflow:visible;"/>
	</clipPath>
	<path class="st0" d="M49.9,131.1c6.8,0.9,78.9-33.8,91.1-17.8c-0.2,19.7,6.8,35.3,19,38.5c9.6,2.6,20.3-3.1,29.2-14.1
		c4,2,7.9,4,11.7,6.1C190.2,160.3,86,176.1,63.8,178.4C-4,185.4,34.7,129.3,49.9,131.1"/>
	<path class="st1" d="M151.1,36.3c-8.1,19,0.6,40.9,19.6,49.1c19,8.1,40.9-0.6,49.1-19.6c8.1-19-0.6-40.9-19.6-49.1
		C181.2,8.6,159.2,17.3,151.1,36.3"/>
	<path class="st1" d="M144.5,23.8c-4.9,11.3,0.4,24.5,11.7,29.4c11.3,4.9,24.5-0.4,29.4-11.7c4.9-11.3-0.4-24.5-11.7-29.4
		C162.5,7.2,149.4,12.4,144.5,23.8"/>
	<path class="st2" d="M138.9,102.4c-16-11.1-17.5-36.7-3.3-57.2c14.2-20.5,38.7-28.2,54.7-17.1c13.4,9.2,16.6,28.6,9.1,46.7
		c4.2-3.3,10-4.2,15.3-1.9c7.3,3.2,10.9,11.8,8.1,19.2c-3.1,8-12.2,11.8-20,8.5c-1.7-0.7-3.1-1.7-4.4-2.9L188,137.1
		c4.4,2.1-64.3,12.7-48.6-19.5l6.9-11.5C143.7,105.2,141.2,104,138.9,102.4"/>
	<path class="st1" d="M165.9,141.5c-10.5,0-21.8-1.7-27-7.6c-3.7-4.2-3.8-9.8-0.5-16.7l6.4-10.6c-2.3-0.8-4.5-2-6.5-3.3
		c-8-5.5-12.8-14.7-13.4-25.8c-0.6-11,2.8-22.7,9.8-32.8c7-10.1,16.6-17.5,27.2-20.8c10.6-3.3,20.9-2.1,28.9,3.4
		c12.8,8.8,16.9,27,10.5,45.1c4.2-2.1,9.2-2.3,13.6-0.4c7.8,3.4,11.6,12.6,8.6,20.5c-1.6,4.1-4.7,7.3-8.8,9.1
		c-4.1,1.7-8.5,1.7-12.6,0c-1.2-0.5-2.4-1.2-3.4-2l-9.7,37.4c0.1,0.2,0.1,0.4,0.1,0.5c-0.1,0.9-0.9,1.3-1.8,1.6
		C184.3,140,175.4,141.5,165.9,141.5 M173.5,24c-3.5,0-7.2,0.6-10.9,1.8c-10.1,3.2-19.4,10.3-26.1,20c-6.7,9.7-10.1,20.9-9.5,31.5
		c0.6,10.5,5.1,19.1,12.6,24.3c2.2,1.5,4.6,2.7,7.1,3.5c0.3,0.1,0.5,0.3,0.6,0.6c0.1,0.3,0.1,0.6-0.1,0.9l-6.9,11.5
		c-3.4,7-2.9,12.1,1.6,15.8c10.7,8.7,40.8,5,45.2,3.1c0-0.1,0-0.1,0-0.2l10.2-39.5c0.1-0.3,0.4-0.6,0.7-0.7c0.3-0.1,0.7,0,1,0.2
		c1.2,1.2,2.6,2.1,4.1,2.7c3.5,1.5,7.5,1.5,11,0s6.3-4.3,7.7-7.9c2.7-6.9-0.7-14.9-7.5-17.9c-4.7-2.1-10.2-1.4-14.2,1.8
		c-0.4,0.3-0.9,0.3-1.2,0c-0.4-0.3-0.5-0.8-0.3-1.2c7.5-18,3.9-36.8-8.7-45.5C185,25.7,179.4,24,173.5,24"/>
	<path class="st1" d="M200.9,89.4c-0.1,0-0.2,0-0.3,0c-0.5-0.2-0.8-0.7-0.6-1.3c1.4-4.2,3.6-7,6.6-8.5c4.4-2.1,8.8-0.5,9-0.5
		c0.5,0.2,0.8,0.8,0.6,1.3c-0.2,0.5-0.8,0.8-1.3,0.6c-0.1,0-3.8-1.3-7.4,0.4c-2.5,1.2-4.4,3.7-5.6,7.3
		C201.7,89.1,201.3,89.4,200.9,89.4"/>
	<path class="st1" d="M155.7,108.5c-3,0-6-0.4-8.9-1.2c-0.5-0.2-0.8-0.7-0.7-1.2c0.2-0.5,0.7-0.8,1.2-0.7c9.9,2.8,21.4,0.3,31.7-6.9
		c0.5-0.3,1.1-0.2,1.4,0.2c0.3,0.5,0.2,1.1-0.2,1.4C172.5,105.6,163.9,108.5,155.7,108.5"/>
	<path class="st1" d="M146.7,42.6c0.1,1.2-2.5,2.6-6,3c-3.5,0.4-6.4-0.3-6.5-1.5c-0.1-1.2,2.5-2.6,6-3
		C143.7,40.7,146.6,41.3,146.7,42.6"/>
	<path class="st1" d="M173,59.3c-0.9,1.3-4.5,0.3-8-2.2c-3.5-2.5-5.7-5.5-4.8-6.8c0.9-1.3,4.5-0.3,8,2.2
		C171.8,55,173.9,58.1,173,59.3"/>
	<path class="st1" d="M144.1,65.2c-0.4,0-0.7-0.2-0.9-0.6c-0.9-2-0.7-4.3,0.5-6l5.8-8.4c0.3-0.5,0.9-0.6,1.4-0.2
		c0.5,0.3,0.6,0.9,0.2,1.4l-5.8,8.4c-0.8,1.2-1,2.7-0.4,4.1c0.2,0.5,0,1.1-0.5,1.3C144.4,65.2,144.3,65.2,144.1,65.2"/>
	<path class="st1" d="M149.6,83c-2.1,0-4.3-0.3-6.8-1.2c-0.5-0.2-0.8-0.8-0.6-1.3c0.2-0.5,0.8-0.8,1.3-0.6c8.5,3.1,15-1.4,15.1-1.5
		c0.5-0.3,1.1-0.2,1.4,0.2c0.3,0.4,0.2,1.1-0.2,1.4C159.5,80.3,155.6,83,149.6,83"/>
	<path class="st1" d="M170.1,25.2c0,8.2,6.7,14.9,14.9,14.9s14.9-6.7,14.9-14.9c0-8.2-6.7-14.9-14.9-14.9S170.1,17,170.1,25.2"/>
	<path class="st1" d="M186.6,42c0,8.2,6.7,14.9,14.9,14.9s14.9-6.7,14.9-14.9c0-8.2-6.7-14.9-14.9-14.9S186.6,33.8,186.6,42"/>
	<path class="st1" d="M186.9,72.5c0,3.9,3.1,7,7,7s7-3.1,7-7c0-3.9,11.5-26.9,0.5-26.9C188.3,45.6,186.9,68.6,186.9,72.5"/>
	<path class="st1" d="M225.7,39.9c-0.1,0-0.2,0-0.4-0.1c-0.7-0.3-2.8-0.9-4.2-0.3c-0.5,0.2-1.1,0-1.3-0.5c-0.2-0.5,0-1.1,0.5-1.3
		c2.4-1,5.6,0.2,5.7,0.3c0.5,0.2,0.8,0.8,0.6,1.3C226.5,39.7,226.1,39.9,225.7,39.9"/>
	<path class="st1" d="M219.9,37.8c-0.4,0-0.8-0.3-1-0.7c-0.2-0.5,0.1-1.1,0.6-1.3c0.1,0,2.2-0.8,2.6-2.9c0.1-0.5,0.6-0.9,1.2-0.8
		c0.5,0.1,0.9,0.6,0.8,1.2c-0.6,3.4-3.8,4.4-3.9,4.5C220.1,37.8,220,37.8,219.9,37.8"/>
	<path class="st2" d="M60,41.8l7.2,11.7c3.2,5.2,4.7,11.3,4.4,17.4l-4.8,83.8c-0.9,15.1-14.8,26-29.6,23.3
		c-15.3-2.8-24.5-18.7-19.2-33.4l28.3-78L27,52.9l3.5-22L60,41.8z"/>
	<path class="st1" d="M41.7,179.5c-1.6,0-3.1-0.1-4.7-0.4c-7.6-1.4-14.2-6-18-12.7c-3.8-6.7-4.5-14.7-1.9-22l28.1-77.3L26.4,53.7
		c-0.3-0.2-0.5-0.6-0.4-1l3.5-22c0-0.3,0.2-0.6,0.5-0.7c0.3-0.2,0.6-0.2,0.9-0.1l29.5,11c0.2,0.1,0.4,0.2,0.5,0.4L68.1,53
		c3.3,5.4,4.9,11.6,4.5,18l-4.8,83.8c-0.4,7.5-4,14.4-9.9,19.1C53.3,177.6,47.5,179.5,41.7,179.5 M28.1,52.4L47,65.9
		c0.4,0.3,0.5,0.7,0.4,1.2l-28.3,78c-2.4,6.7-1.8,14.1,1.8,20.3c3.6,6.2,9.6,10.5,16.6,11.7c6.8,1.2,13.8-0.5,19.3-4.8
		c5.4-4.3,8.8-10.7,9.2-17.6l4.8-83.8c0.3-5.9-1.1-11.7-4.3-16.8l-7-11.4L31.3,32.2L28.1,52.4z"/>
	<path class="st1" d="M119.8,44.7l-14.2-4.3l-0.7-2c-1-3.1-3.4-5.6-6.5-6.8L76.3,23l-8.7-7.5L29,0.6L15.3,45l50.3,11.3l3.8-2.9
		l23.3,5c2.3,0.5,4.8,0,6.7-1.4l2.2-1.6l15.1,2.9c2.7-2.5,4.1-6.2,3.6-10L119.8,44.7z"/>
	<path class="st1" d="M1,23c0,12.2,9.9,22,22,22c12.2,0,22-9.9,22-22c0-9.6-6.1-17.8-14.7-20.8C28,1.4,25.6,1,23,1
		C10.9,1,1,10.9,1,23"/>
	<path class="st1" d="M23,46C10.3,46,0,35.7,0,23C0,10.3,10.3,0,23,0c2.6,0,5.2,0.4,7.6,1.3C39.8,4.5,46,13.3,46,23
		C46,35.7,35.7,46,23,46 M23,2C11.4,2,2,11.4,2,23c0,11.6,9.4,21,21,21s21-9.4,21-21c0-8.9-5.6-16.9-14-19.8C27.8,2.4,25.4,2,23,2"
		/>
	<path class="st2" d="M7.8,25.6c0,11.3,9.1,20.4,20.4,20.4s20.4-9.2,20.4-20.4c0-11.3-9.2-20.4-20.4-20.4S7.8,14.3,7.8,25.6"/>
	<path class="st1" d="M28.2,47.1c-11.8,0-21.4-9.6-21.4-21.4c0-11.8,9.6-21.4,21.4-21.4s21.4,9.6,21.4,21.4
		C49.7,37.4,40.1,47.1,28.2,47.1 M28.2,6.2c-10.7,0-19.4,8.7-19.4,19.4c0,10.7,8.7,19.4,19.4,19.4c10.7,0,19.4-8.7,19.4-19.4
		C47.7,14.9,39,6.2,28.2,6.2"/>
	<path class="st1" d="M162.5,56.6l-14.2-4.3l-0.7-2c-1-3.1-3.4-5.6-6.5-6.8l-22.1-8.6l-8.7-7.5L73.8,13.1L63,57.8l45.4,10.4l3.8-2.9
		l23.3,5c2.3,0.5,4.8,0,6.7-1.4l2.2-1.6l15.1,2.9c2.7-2.5,4.1-6.2,3.6-10L162.5,56.6z"/>
	<path class="st1" d="M43.8,34.9c0,12.2,9.9,22,22,22c12.2,0,22-9.9,22-22c0-9.6-6.1-17.8-14.7-20.8c-2.3-0.8-4.7-1.2-7.3-1.2
		C53.6,12.9,43.8,22.7,43.8,34.9"/>
	<path class="st1" d="M65.8,57.9c-12.7,0-23-10.3-23-23c0-12.7,10.3-23,23-23c2.6,0,5.2,0.4,7.6,1.3c9.2,3.2,15.4,12,15.4,21.7
		C88.8,47.6,78.5,57.9,65.8,57.9 M65.8,13.9c-11.6,0-21,9.4-21,21c0,11.6,9.4,21,21,21s21-9.4,21-21c0-8.9-5.6-16.9-14-19.8
		C70.5,14.3,68.2,13.9,65.8,13.9"/>
	<path class="st2" d="M51.3,37.5c0,10.9,8.8,19.7,19.7,19.7s19.7-8.8,19.7-19.7c0-10.9-8.8-19.7-19.7-19.7S51.3,26.6,51.3,37.5"/>
	<path class="st1" d="M71,58.2c-11.4,0-20.7-9.3-20.7-20.7S59.6,16.8,71,16.8c11.4,0,20.7,9.3,20.7,20.7S82.4,58.2,71,58.2 M71,18.8
		c-10.3,0-18.7,8.4-18.7,18.7S60.7,56.2,71,56.2s18.7-8.4,18.7-18.7S81.3,18.8,71,18.8"/>
	<polygon class="st0" points="181.5,228.4 216.3,154.1 75.5,172.8 53.8,230.5 	"/>
	<path class="st2" d="M78.8,76.6c0.2-5.3,3-10.1,7.5-12.8l5.3-4l8.1-10.6l-0.6-12.1c-0.1-2.5,1.7-4.6,4.1-5l1.7-0.2l0-0.6
		c-0.2-3.2,2.1-5.9,5.2-6.4l3.5-0.5l0,0.3c0.9-1.3,2.4-2.3,4.1-2.5l3.5-0.5l1.6,8.8c0.9-1.7,2.5-3,4.6-3.3l3.5-0.5l3.2,21.4
		l-3.8,15.1l-24.2,26.1l16.2,64.3l54.5-32.6c12.9-7.7,29.6-3.4,37.2,9.6c7.8,13.4,2.7,30.6-11.2,37.6l-71,35.9
		c-7.2,4.3-15.3,7-23.6,8c-18,2.1-33.7-12.3-33-30.5L78.8,76.6z"/>
	<path class="st1" d="M104.7,213.4c-7.6,0-15-2.9-20.7-8.1c-6.6-6.1-10.2-14.7-9.8-23.6l3.7-105.1C78,71,81,65.9,85.8,63l5.1-3.9
		l7.8-10.2l-0.6-11.8c-0.2-3,2-5.6,5-6l0.8-0.1c-0.1-3.6,2.5-6.6,6.1-7.1l3.4-0.5c1.1-1.2,2.6-2,4.2-2.3l3.5-0.5
		c0.5-0.1,1,0.3,1.1,0.8l1.2,6.6c1.1-1,2.4-1.6,3.8-1.8l3.5-0.5c0.5-0.1,1,0.3,1.1,0.8l3.2,21.4c0,0.1,0,0.3,0,0.4l-3.8,15.1
		c0,0.2-0.1,0.3-0.2,0.4l-23.9,25.7l15.8,62.5l53.3-31.9c6.5-3.9,14.1-5,21.4-3.1c7.3,1.9,13.4,6.5,17.2,13c3.9,6.7,4.8,14.5,2.6,22
		c-2.2,7.5-7.3,13.5-14.2,17l-71,35.9c-7.3,4.4-15.4,7.1-24,8.1C107.1,213.3,105.9,213.4,104.7,213.4 M79.8,76.7l-3.7,105.1
		c-0.3,8.3,3.1,16.4,9.2,22c6.1,5.7,14.4,8.4,22.7,7.4c8.3-1,16.1-3.6,23.2-7.9l71-35.9c6.4-3.3,11.1-8.9,13.2-15.8
		c2.1-6.9,1.2-14.2-2.4-20.4c-3.5-6.1-9.2-10.4-16-12.1c-6.8-1.8-13.8-0.7-19.8,2.9l-54.5,32.6c-0.3,0.2-0.6,0.2-0.9,0.1
		c-0.3-0.1-0.5-0.4-0.6-0.7l-16.2-64.3c-0.1-0.3,0-0.7,0.2-0.9l24.1-25.9l3.7-14.7l-3-20.2l-2.5,0.4c-1.6,0.2-3.1,1.3-3.8,2.7
		c-0.2,0.4-0.6,0.6-1,0.5c-0.4-0.1-0.8-0.4-0.8-0.8l-1.4-7.9l-2.6,0.4c-1.4,0.2-2.6,0.9-3.4,2.1c-0.2,0.3-0.7,0.5-1,0.4
		c-0.1,0-0.2-0.1-0.4-0.2l-2.8,0.4c-2.6,0.4-4.5,2.7-4.4,5.3l0,0.6c0,0.5-0.3,1-0.9,1l-1.7,0.2c-1.9,0.3-3.3,2-3.2,3.9l0.6,12.1
		c0,0.2-0.1,0.5-0.2,0.7l-8.1,10.6c-0.1,0.1-0.1,0.1-0.2,0.2l-5.3,4c0,0-0.1,0-0.1,0.1C82.6,67.3,80,71.7,79.8,76.7"/>
	<path class="st2" d="M122.1,33.6c-0.2-3.2,2.1-5.9,5.2-6.4l3.5-0.5l3.2,21.4l-3.8,15.1L122.1,33.6z"/>
	<path class="st1" d="M130.3,64.2c-0.1,0-0.2,0-0.2,0c-0.5-0.1-0.9-0.7-0.7-1.2l3.7-14.9l-3-20.2l-2.5,0.4c-2.6,0.4-4.5,2.7-4.4,5.3
		c0,0.6-0.4,1-0.9,1.1c-0.6,0-1-0.4-1.1-0.9c-0.2-3.7,2.4-6.9,6.1-7.4l3.5-0.5c0.6-0.1,1,0.3,1.1,0.8l3.2,21.4c0,0.1,0,0.3,0,0.4
		l-3.8,15.1C131.1,63.9,130.7,64.2,130.3,64.2"/>
	<path class="st2" d="M112.5,28.5c-0.2-3.2,2.1-5.9,5.2-6.4l3.5-0.5l4,22.8L120.8,62L112.5,28.5z"/>
	<path class="st1" d="M120.8,63c-0.1,0-0.2,0-0.2,0c-0.5-0.1-0.9-0.7-0.7-1.2l4.4-17.3l-3.8-21.6l-2.6,0.4c-2.6,0.4-4.5,2.7-4.4,5.3
		c0,0.6-0.4,1-0.9,1.1c-0.5,0-1-0.4-1.1-0.9c-0.2-3.7,2.4-6.9,6.1-7.4l3.5-0.5c0.5-0.1,1,0.3,1.1,0.8l4,22.8c0,0.1,0,0.3,0,0.4
		l-4.4,17.5C121.7,62.7,121.3,63,120.8,63"/>
	<path class="st2" d="M104.8,31.3c-0.2-3.2,2.1-5.9,5.2-6.4l3.5-0.5l3.2,21.4L113,60.9L104.8,31.3z"/>
	<path class="st1" d="M113,61.9c-0.1,0-0.2,0-0.2,0c-0.5-0.1-0.9-0.7-0.7-1.2l3.7-14.9l-3-20.2l-2.5,0.4c-2.6,0.4-4.5,2.7-4.4,5.3
		c0,0.6-0.4,1-0.9,1.1c-0.6,0-1-0.4-1.1-0.9c-0.2-3.7,2.4-6.9,6.1-7.4l3.5-0.5c0.5-0.1,1,0.3,1.1,0.8l3.2,21.4c0,0.1,0,0.3,0,0.4
		l-3.8,15.1C113.8,61.6,113.4,61.9,113,61.9"/>
	<path class="st2" d="M91.6,59.8l8.1-10.6l-0.6-12.1c-0.1-2.5,1.7-4.6,4.1-5l2.8-0.4l2.5,16.7l-3,11.8L91.6,59.8z"/>
	<path class="st1" d="M105.4,61.3c-0.1,0-0.2,0-0.2,0c-0.5-0.1-0.9-0.7-0.7-1.2l2.9-11.6l-2.3-15.5l-1.8,0.2c-1.9,0.3-3.3,2-3.2,3.9
		l0.6,12.1c0,0.2-0.1,0.5-0.2,0.7l-8.1,10.6c-0.3,0.4-1,0.5-1.4,0.2c-0.4-0.3-0.5-1-0.2-1.4l7.9-10.3l-0.6-11.8c-0.2-3,2-5.6,5-6
		l2.8-0.4c0.5-0.1,1,0.3,1.1,0.8l2.5,16.7c0,0.1,0,0.3,0,0.4l-3,11.8C106.3,61,105.9,61.3,105.4,61.3"/>
	<path class="st0" d="M129.4,149c0.1-2.7,43.9-33.6,43.9-33.6c5.2-3.1,11.2-4.8,17.2-4.8c11.9,0,23,6.4,29,16.7
		c4.7,8.1,5.8,17.4,3.2,26.4c-2.6,8.9-8.7,16.2-17,20.4L158.5,198c0-0.2,0-0.5,0-0.7C158.5,176.8,146.8,158.9,129.4,149"/>
	<path class="st1" d="M158.5,199c-0.2,0-0.4-0.1-0.5-0.2c-0.3-0.2-0.5-0.5-0.5-0.9l0-0.3c0-0.1,0-0.3,0-0.4
		c0-19.6-10.7-37.3-28.5-47.4c-0.3-0.2-0.5-0.5-0.5-0.9c0-0.9,0.1-2.1,22.4-18.6c10.9-8,21.8-15.7,21.9-15.8
		c5.4-3.2,11.5-4.9,17.8-4.9c2,0,3.9,0.2,5.9,0.5c0.5,0.1,0.9,0.6,0.8,1.2s-0.6,0.9-1.2,0.8c-7.6-1.3-15.6,0.2-22.2,4.1
		c-15.2,10.7-39.3,28.3-43.1,32.4c17.4,10.2,28.3,28.4,28.6,47.7l31.7-16c0.5-0.2,1.1-0.1,1.3,0.4c0.2,0.5,0.1,1.1-0.4,1.3
		l-33.2,16.8C158.8,199,158.6,199,158.5,199"/>
	<path class="st1" d="M125.5,173c-0.5,0-0.9-0.3-1-0.8l-3.2-18.4c-0.1-0.5,0.3-1.1,0.8-1.2c0.5-0.1,1.1,0.3,1.2,0.8l3.2,18.4
		c0.1,0.5-0.3,1.1-0.8,1.2C125.6,173,125.5,173,125.5,173"/>
</g>
</svg>
