<?xml version="1.0" encoding="utf-8"?>
<!-- Generator: Adobe Illustrator 23.0.1, SVG Export Plug-In . SVG Version: 6.00 Build 0)  -->
<svg version="1.1" id="Camada_1" xmlns="http://www.w3.org/2000/svg" xmlns:xlink="http://www.w3.org/1999/xlink" x="0px" y="0px"
	 viewBox="0 0 279.2 231.8" style="enable-background:new 0 0 279.2 231.8;" xml:space="preserve">
<style type="text/css">
	.st0{clip-path:url(#SVGID_2_);fill:#FFFFFF;}
	.st1{clip-path:url(#SVGID_2_);fill:#080717;}
	.st2{clip-path:url(#SVGID_2_);fill:#66CCFF;}
</style>
<g>
	<defs>
		<rect id="SVGID_1_" width="279.2" height="231.8"/>
	</defs>
	<clipPath id="SVGID_2_">
		<use xlink:href="#SVGID_1_"  style="overflow:visible;"/>
	</clipPath>
	<path class="st0" d="M204.5,141.2H21.3c-5,0-9-4-9-9V10c0-5,4-9,9-9h183.3c5,0,9,4,9,9v122.2C213.5,137.2,209.5,141.2,204.5,141.2"
		/>
	<path class="st1" d="M204.5,142.2H21.3c-5.5,0-10-4.5-10-10V10c0-5.5,4.5-10,10-10h183.3c5.5,0,10,4.5,10,10v122.2
		C214.5,137.7,210,142.2,204.5,142.2 M21.3,2c-4.4,0-8,3.6-8,8v122.2c0,4.4,3.6,8,8,8h183.3c4.4,0,8-3.6,8-8V10c0-4.4-3.6-8-8-8
		H21.3z"/>
	<path class="st1" d="M23.8,15c-2.3,0-4.3-1.9-4.3-4.3c0-2.3,1.9-4.3,4.3-4.3S28,8.4,28,10.8C28,13.1,26.1,15,23.8,15 M23.8,8.5
		c-1.2,0-2.3,1-2.3,2.3c0,1.2,1,2.3,2.3,2.3s2.3-1,2.3-2.3C26,9.5,25,8.5,23.8,8.5"/>
	<path class="st1" d="M34.7,15c-2.3,0-4.3-1.9-4.3-4.3c0-2.3,1.9-4.3,4.3-4.3c2.3,0,4.3,1.9,4.3,4.3C39,13.1,37.1,15,34.7,15
		 M34.7,8.5c-1.2,0-2.3,1-2.3,2.3c0,1.2,1,2.3,2.3,2.3c1.2,0,2.3-1,2.3-2.3C37,9.5,36,8.5,34.7,8.5"/>
	<path class="st1" d="M45.7,15c-2.3,0-4.3-1.9-4.3-4.3c0-2.3,1.9-4.3,4.3-4.3c2.3,0,4.3,1.9,4.3,4.3C49.9,13.1,48,15,45.7,15
		 M45.7,8.5c-1.2,0-2.3,1-2.3,2.3c0,1.2,1,2.3,2.3,2.3s2.3-1,2.3-2.3C47.9,9.5,46.9,8.5,45.7,8.5"/>
	<rect x="95.9" y="34.2" class="st2" width="30" height="70.3"/>
	<rect x="35.6" y="34.2" class="st2" width="30" height="70.3"/>
	<rect x="155.8" y="34.2" class="st2" width="30" height="70.3"/>
	<rect x="35.5" y="26.8" class="st1" width="58.2" height="2"/>
	<path class="st1" d="M186,96.9H35.7c-0.6,0-1-0.4-1-1c0-0.6,0.4-1,1-1H186c0.6,0,1,0.4,1,1C187,96.5,186.6,96.9,186,96.9"/>
	<path class="st1" d="M35.7,100c-0.6,0-1-0.4-1-1v-3.1c0-0.6,0.4-1,1-1c0.6,0,1,0.4,1,1V99C36.7,99.5,36.3,100,35.7,100"/>
	<path class="st1" d="M65.8,100c-0.6,0-1-0.4-1-1v-3.1c0-0.6,0.4-1,1-1c0.6,0,1,0.4,1,1V99C66.8,99.5,66.3,100,65.8,100"/>
	<path class="st1" d="M95.8,100c-0.6,0-1-0.4-1-1v-3.1c0-0.6,0.4-1,1-1c0.6,0,1,0.4,1,1V99C96.8,99.5,96.4,100,95.8,100"/>
	<path class="st1" d="M125.9,100c-0.6,0-1-0.4-1-1v-3.1c0-0.6,0.4-1,1-1c0.6,0,1,0.4,1,1V99C126.9,99.5,126.5,100,125.9,100"/>
	<path class="st1" d="M156,100c-0.6,0-1-0.4-1-1v-3.1c0-0.6,0.4-1,1-1c0.6,0,1,0.4,1,1V99C157,99.5,156.5,100,156,100"/>
	<path class="st1" d="M186,100c-0.6,0-1-0.4-1-1v-3.1c0-0.6,0.4-1,1-1c0.6,0,1,0.4,1,1V99C187,99.5,186.6,100,186,100"/>
	<path class="st1" d="M38.1,80.8c0,1.1-1,2.1-2.3,2.1c-1.3,0-2.3-0.9-2.3-2.1c0-1.1,1-2.1,2.3-2.1C37,78.8,38.1,79.7,38.1,80.8"/>
	<path class="st1" d="M98.4,75.8c0,1.1-1,2.1-2.3,2.1c-1.3,0-2.3-0.9-2.3-2.1c0-1.1,1-2.1,2.3-2.1C97.3,73.7,98.4,74.6,98.4,75.8"/>
	<path class="st1" d="M158,61.8c0,1.1-1,2.1-2.3,2.1c-1.3,0-2.3-0.9-2.3-2.1c0-1.1,1-2.1,2.3-2.1C156.9,59.8,158,60.7,158,61.8"/>
	<path class="st1" d="M187.4,35.3c0,1.1-1,2.1-2.3,2.1c-1.3,0-2.3-0.9-2.3-2.1c0-1.1,1-2.1,2.3-2.1
		C186.4,33.2,187.4,34.2,187.4,35.3"/>
	<path class="st1" d="M122,88.3c-8.6,0-17.6-3.9-26.6-11.8C83.2,66,71.5,61.6,60.7,63.5c-15.4,2.8-23.8,17.6-23.9,17.8
		c-0.3,0.5-0.9,0.7-1.4,0.4c-0.5-0.3-0.7-0.9-0.4-1.4c0.4-0.6,9-15.9,25.3-18.8C71.8,59.5,84,64,96.7,75c10.7,9.3,21.1,12.8,31,10.7
		c18.3-4,28.8-26.8,28.9-27c0.5-1,11.9-23.9,28.5-24.4c0.6,0,1,0.4,1,1c0,0.6-0.4,1-1,1c-15.4,0.5-26.7,23-26.8,23.2
		c-0.1,0.2-2.7,6-7.8,12.4c-6.7,8.5-14.5,14-22.5,15.7C126.1,88.1,124.1,88.3,122,88.3"/>
	<path class="st0" d="M267,146.3l-35-27.9c-0.2-0.2-0.5-0.1-0.6,0l-26.9,22.2c-7-4.8-12.7-1.8-13.7-1.3l-48,2.7l-13.4-5.3
		c-15.9-6.3-33.7-7-50.1-2.1l-38.5,11.5l-34,2.1l0.2-0.4c0.1-0.3,0-0.6-0.3-0.7c-0.3-0.1-0.6,0-0.7,0.3l-0.5,1.2
		c-4,9-4.2,18.9-0.6,28c3.6,9.1,10.5,16.3,19.4,20.2c4.7,2,9.6,3,14.5,3c4.5,0,9-0.8,13.3-2.5L93.9,181l-12.1,49
		c0,0.2,0,0.3,0.1,0.4c0.1,0.1,0.2,0.2,0.4,0.2l110,0.7h0c0.1,0,0.3-0.1,0.4-0.2c0.1-0.1,0.2-0.2,0.1-0.4l-0.4-38.2l51.6,7.6
		c1.4,0.2,2.8,0.3,4.3,0.3c14.1,0,26.7-9.9,29.7-24.1C280.4,165,276.2,153.4,267,146.3"/>
	<path class="st0" d="M1.1,121.5c0,0,1,16,6,21.4c7.1,7.6,16.5,5.1,17.6,4.8L1.1,121.5z"/>
	<path class="st0" d="M26.6,133.8c0,0,8,1.8,11.9,7.7c3.8,5.8,3.7,14.8-0.9,22.8c-2.5,4.2-17.5,0.2-22.5-2.7
		c-8.8-5.2-8.5-13.9-8.5-13.9l2.2-3L26.6,133.8z"/>
	<path class="st1" d="M32.3,167c-5.9,0-14.4-2.7-17.8-4.7c-9.2-5.4-9-14.4-9-14.8c0-0.2,0.1-0.4,0.2-0.6l2.2-3
		c0.3-0.4,1-0.5,1.4-0.2c0.4,0.3,0.5,1,0.2,1.4l-2,2.7c0,1.5,0.6,8.4,8,12.7c4.1,2.5,14.7,5.3,19.4,4.1c0.9-0.2,1.5-0.6,1.8-1.1
		c4.3-7.3,4.7-16,1-21.7c-3.6-5.4-11.2-7.2-11.2-7.3c-0.5-0.1-0.9-0.7-0.8-1.2c0.1-0.5,0.7-0.9,1.2-0.8c0.3,0.1,8.4,2,12.5,8.1
		c4.2,6.4,3.9,15.8-0.9,23.8c-0.6,0.9-1.6,1.6-3,2C34.5,166.9,33.4,167,32.3,167"/>
	<path class="st0" d="M4.8,128.2c-1.9-0.2-3.4-1.7-3.6-3.6c-1.3-13.5,7.4-19.7,7.8-20c1.9-1.3,4.4-0.8,5.7,1c1.3,1.8,0.8,4.3-1,5.6
		c-0.3,0.2-5.2,4-4.4,12.5c0.2,2.2-1.4,4.2-3.7,4.4C5.3,128.2,5,128.2,4.8,128.2"/>
	<path class="st1" d="M5.2,129.2c-0.2,0-0.3,0-0.5,0c-2.4-0.2-4.3-2.2-4.5-4.5C-1.3,110.5,8,104,8.4,103.7c2.3-1.6,5.5-1,7.1,1.3
		c1.6,2.3,1,5.4-1.2,7c-0.2,0.1-4.7,3.6-4,11.6c0.1,1.3-0.3,2.7-1.1,3.7c-0.9,1-2.1,1.7-3.4,1.8C5.5,129.2,5.4,129.2,5.2,129.2
		 M4.9,127.2c0.2,0,0.4,0,0.6,0c0.8-0.1,1.6-0.5,2.1-1.1c0.5-0.6,0.8-1.4,0.7-2.2c-0.9-9.1,4.5-13.2,4.8-13.4c1.4-1,1.7-2.9,0.8-4.3
		c-1-1.4-2.9-1.7-4.3-0.8c-0.4,0.2-8.7,6.1-7.4,19.1C2.3,125.9,3.4,127,4.9,127.2"/>
	<path class="st0" d="M3,131.8c1.3-13.5,11.1-17.9,11.5-18.1c2.1-0.9,4.5,0.1,5.4,2.1c0.9,2,0,4.4-2.1,5.3
		c-0.3,0.2-5.9,2.9-6.7,11.4L3,131.8z"/>
	<path class="st1" d="M11.1,133.6C11.1,133.6,11,133.6,11.1,133.6c-0.6-0.1-1-0.5-1-1.1c0.9-9.1,7-12.1,7.3-12.2
		c1.5-0.7,2.2-2.5,1.6-4c-0.7-1.6-2.5-2.3-4-1.6c-0.4,0.2-9.7,4.3-10.9,17.3c-0.1,0.5-0.5,1-1.1,0.9c-0.6-0.1-1-0.5-0.9-1.1
		c1.4-14.1,11.7-18.7,12.1-18.9c2.6-1.1,5.6,0.1,6.7,2.6c1.1,2.5-0.1,5.5-2.6,6.6c-0.2,0.1-5.4,2.6-6.1,10.6
		C12,133.2,11.6,133.6,11.1,133.6"/>
	<path class="st0" d="M6.4,136.9c2-12.1,10.9-16.1,11.3-16.3c2.1-0.9,4.5,0,5.4,2.1c0.9,2.1,0,4.4-2.1,5.4
		c-0.3,0.2-5.9,2.9-6.7,11.5L6.4,136.9z"/>
	<path class="st1" d="M14.3,140.5C14.3,140.5,14.2,140.5,14.3,140.5c-0.6-0.1-1-0.5-1-1.1c0.9-9.2,7-12.2,7.3-12.3
		c1.6-0.7,2.3-2.5,1.6-4.1c-0.7-1.6-2.5-2.3-4.1-1.6c-0.4,0.2-8.8,4-10.7,15.5c-0.1,0.5-0.6,0.9-1.1,0.8c-0.5-0.1-0.9-0.6-0.8-1.1
		c2.1-12.6,11.5-16.9,11.9-17.1c2.6-1.1,5.6,0.1,6.7,2.6c1.1,2.5-0.1,5.5-2.6,6.7c-0.2,0.1-5.4,2.6-6.1,10.7
		C15.2,140.1,14.8,140.5,14.3,140.5"/>
	<path class="st0" d="M12.9,141.2c1.3-8.2,7-11.9,7.6-12.2c1.9-1.2,4.4-0.5,5.6,1.4c1.1,1.9,0.5,4.4-1.4,5.6
		c-0.2,0.1-3.1,2.1-3.8,6.5L12.9,141.2z"/>
	<path class="st1" d="M21,143.5c-0.1,0-0.1,0-0.2,0c-0.5-0.1-0.9-0.6-0.8-1.1c0.7-4.8,3.9-6.9,4.2-7.2c1.5-0.9,1.9-2.8,1.1-4.2
		c-0.4-0.7-1.1-1.2-1.9-1.4c-0.8-0.2-1.6-0.1-2.3,0.3c-0.6,0.4-6,3.8-7.2,11.5c-0.1,0.5-0.6,0.9-1.1,0.8c-0.5-0.1-0.9-0.6-0.8-1.1
		c1.3-8.7,7.4-12.5,8.1-13c1.2-0.7,2.5-0.9,3.9-0.6c1.3,0.3,2.4,1.2,3.1,2.3c1.4,2.4,0.7,5.5-1.7,6.9c-0.1,0.1-2.7,1.8-3.3,5.8
		C21.9,143.1,21.5,143.5,21,143.5"/>
	<path class="st1" d="M19.8,149.3c-4,0-9.1-1.1-13.4-5.7c-5.2-5.6-6.3-21.4-6.3-22c0-0.6,0.4-1,0.9-1.1c0.5,0,1,0.4,1.1,0.9
		c0,0.2,1,15.7,5.8,20.8c5.8,6.3,13.5,5.3,16.5,4.6l0.1,0c0.5-0.1,1.1,0.2,1.2,0.8c0.1,0.5-0.2,1.1-0.8,1.2l-0.1,0
		C23.6,149,21.9,149.3,19.8,149.3"/>
	<path class="st0" d="M222,92.6c0,0,7.4,14.2,5.9,21.5c-2.1,10.2-11.5,12.9-12.6,13.2L222,92.6z"/>
	<path class="st0" d="M206.5,116.3c0,0-5.9,5.7-6.2,12.7c-0.3,7,4.5,14.6,12.6,19c4.3,2.3,15.1-8.8,17.9-14c4.8-9,0.1-16.3,0.1-16.3
		l-3.5-1.4L206.5,116.3z"/>
	<path class="st1" d="M214.2,149.4c-0.7,0-1.3-0.1-1.8-0.4c-8.2-4.5-13.4-12.3-13.1-19.9c0.3-7.3,6.2-13.1,6.5-13.4
		c0.4-0.4,1-0.4,1.4,0c0.4,0.4,0.4,1,0,1.4c-0.1,0.1-5.6,5.5-5.9,12c-0.3,6.8,4.6,14.1,12,18.1c0.5,0.3,1.2,0.3,2,0
		c4.6-1.4,12.2-9.3,14.5-13.6c4-7.5,1-13.7,0.3-15l-3.1-1.3c-0.5-0.2-0.8-0.8-0.6-1.3c0.2-0.5,0.8-0.8,1.3-0.6l3.5,1.4
		c0.2,0.1,0.4,0.2,0.5,0.4c0.2,0.3,5,7.9,0,17.3c-2.2,4.1-10.2,12.9-15.6,14.5C215.4,149.3,214.8,149.4,214.2,149.4"/>
	<path class="st0" d="M222.3,100.2c1.5-1.1,2.1-3.2,1.2-5c-5.8-12.3-16.6-13-17-13.1c-2.2-0.1-4.2,1.6-4.3,3.8
		c-0.1,2.2,1.5,4.1,3.8,4.3c0.4,0,6.5,0.7,10.2,8.5c1,2,3.4,2.9,5.4,1.9C221.9,100.5,222.1,100.4,222.3,100.2"/>
	<path class="st1" d="M219.9,102.1c-0.6,0-1.1-0.1-1.7-0.3c-1.3-0.5-2.3-1.4-2.9-2.6c-3.4-7.2-9.2-7.9-9.4-7.9
		c-2.7-0.2-4.8-2.6-4.7-5.4c0.2-2.8,2.6-4.9,5.4-4.8c0.5,0,11.8,0.8,17.9,13.6c1,2.2,0.4,4.8-1.5,6.2c-0.3,0.2-0.6,0.4-0.9,0.5
		C221.3,101.9,220.6,102.1,219.9,102.1 M222.3,100.2L222.3,100.2L222.3,100.2z M206.3,83.2c-1.6,0-3,1.3-3.1,2.9
		c-0.1,1.7,1.2,3.1,2.8,3.2c0.3,0,7.1,0.8,11,9c0.3,0.7,1,1.3,1.7,1.6c0.8,0.3,1.6,0.2,2.4-0.1c0.2-0.1,0.4-0.2,0.5-0.3
		c1.2-0.9,1.6-2.5,0.9-3.8c-5.6-11.7-15.7-12.5-16.2-12.5C206.4,83.2,206.3,83.2,206.3,83.2"/>
	<path class="st0" d="M225.7,102.4c-8.1-10.9-18.8-9.6-19.2-9.5c-2.2,0.3-3.8,2.3-3.5,4.6c0.3,2.2,2.3,3.8,4.5,3.5
		c0.4,0,6.6-0.5,11.7,6.3L225.7,102.4z"/>
	<path class="st1" d="M219.2,108.3c-0.3,0-0.6-0.1-0.8-0.4c-4.8-6.4-10.5-5.9-10.8-5.9c-2.7,0.3-5.3-1.6-5.6-4.4
		c-0.4-2.8,1.6-5.3,4.4-5.7c0.5-0.1,11.7-1.4,20.2,9.9c0.3,0.4,0.2,1.1-0.2,1.4c-0.4,0.3-1.1,0.2-1.4-0.2
		c-7.7-10.4-17.9-9.2-18.3-9.1c-1.7,0.2-2.9,1.8-2.6,3.5c0.2,1.7,1.7,2.8,3.4,2.6c0.3,0,7.1-0.6,12.6,6.7c0.3,0.4,0.2,1.1-0.2,1.4
		C219.6,108.2,219.4,108.3,219.2,108.3"/>
	<path class="st0" d="M225.4,108.5c-7.9-9.3-17.7-8.2-18.1-8.1c-2.2,0.3-3.8,2.4-3.5,4.6c0.3,2.2,2.3,3.8,4.5,3.5
		c0.4,0,6.6-0.5,11.7,6.4L225.4,108.5z"/>
	<path class="st1" d="M220,115.9c-0.3,0-0.6-0.1-0.8-0.4c-4.8-6.5-10.6-6-10.8-6c-2.7,0.3-5.3-1.6-5.6-4.4c-0.4-2.8,1.6-5.3,4.4-5.7
		c0.4-0.1,10.7-1.3,19,8.5c0.4,0.4,0.3,1.1-0.1,1.4c-0.4,0.4-1.1,0.3-1.4-0.1c-7.6-8.9-16.8-7.8-17.2-7.8c-1.7,0.2-2.9,1.8-2.6,3.5
		c0.2,1.7,1.8,2.9,3.4,2.7c0.3,0,7.1-0.6,12.6,6.8c0.3,0.4,0.2,1.1-0.2,1.4C220.4,115.8,220.2,115.9,220,115.9"/>
	<path class="st0" d="M222.1,115.6c-5.3-6.4-12.1-6.5-12.9-6.5c-2.3,0-4.1,1.9-4.1,4.1c0,2.2,1.8,4,4.1,4.1c0.2,0,3.8,0.2,6.6,3.6
		L222.1,115.6z"/>
	<path class="st1" d="M215.8,121.9c-0.3,0-0.6-0.1-0.8-0.4c-2.6-3.1-5.7-3.2-5.9-3.2c-2.7,0-5-2.3-5-5.1c0-2.8,2.3-5.1,5.1-5.1
		c0.9,0,8,0.1,13.6,6.9c0.4,0.4,0.3,1.1-0.1,1.4c-0.4,0.4-1.1,0.3-1.4-0.1c-5-6-11.4-6.2-12.1-6.2c-1.7,0-3.1,1.4-3.1,3.1
		c0,1.7,1.4,3.1,3.1,3.1c0.5,0,4.3,0.2,7.4,4c0.4,0.4,0.3,1.1-0.1,1.4C216.3,121.8,216.1,121.9,215.8,121.9"/>
	<path class="st1" d="M215.4,128.3c-0.4,0-0.8-0.3-0.9-0.7c-0.2-0.5,0.1-1.1,0.6-1.3l0.1,0c3-0.9,10-4.1,11.8-12.4
		c1.4-6.8-5.7-20.7-5.8-20.8c-0.3-0.5-0.1-1.1,0.4-1.3c0.5-0.3,1.1-0.1,1.4,0.4c0.3,0.6,7.6,14.6,6,22.1c-2,9.4-9.8,12.9-13.1,13.9
		l-0.1,0C215.6,128.3,215.5,128.3,215.4,128.3"/>
	<path class="st1" d="M38.9,200.3c-5,0-10-1-14.7-3.1c-9.1-4-16.1-11.2-19.7-20.5c-3.6-9.2-3.4-19.3,0.6-28.4l0.5-1.2
		c0.2-0.5,0.8-0.7,1.3-0.5c0.5,0.2,0.7,0.8,0.5,1.3L7,149.2c-3.8,8.6-4,18.1-0.6,26.9c3.4,8.7,10,15.6,18.6,19.4
		c8.5,3.7,18,3.9,26.7,0.5l48.6-19c0.5-0.2,1.1,0.1,1.3,0.6c0.2,0.5-0.1,1.1-0.6,1.3l-48.6,19C48,199.5,43.5,200.3,38.9,200.3"/>
	<path class="st1" d="M47.7,176.1c-0.1,0-0.1,0-0.2,0c-0.5-0.1-0.9-0.6-0.8-1.2c0-0.1,2.5-13.2-5.9-22.2c-0.4-0.4-0.4-1,0.1-1.4
		c0.4-0.4,1-0.4,1.4,0.1c9.1,9.8,6.5,23.4,6.4,24C48.6,175.8,48.2,176.1,47.7,176.1"/>
	<path class="st1" d="M40.9,147.6c-0.4,0-0.8-0.3-1-0.7c-0.2-0.5,0.1-1.1,0.7-1.2l38.6-11.5c16.5-4.9,34.4-4.2,50.5,2.1l13.5,5.3
		c0.5,0.2,0.8,0.8,0.6,1.3c-0.2,0.5-0.8,0.8-1.3,0.6l-13.5-5.3c-15.6-6.1-33.1-6.9-49.2-2.1l-38.6,11.5
		C41.1,147.6,41,147.6,40.9,147.6"/>
	<path class="st1" d="M194.9,114.5c-5,12.8-20.1,18.8-33.8,13.5c-13.6-5.3-20.6-20-15.6-32.8c5-12.8,20.1-18.8,33.8-13.5
		C193,87,199.9,101.7,194.9,114.5"/>
	<path class="st1" d="M199.1,165.5l-8.5-64.9l-8.9-8.7l-29.9,75c-2.6,6.4,2.2,13.5,9.2,13.3C175,179.9,188.5,174.6,199.1,165.5"/>
	<path class="st0" d="M139.6,160.6L139.6,160.6c-7.6-2.8-11.5-11.3-8.6-18.9l14.5-38.9l27.6,10.3l-14.5,38.9
		C155.7,159.6,147.2,163.4,139.6,160.6"/>
	<path class="st1" d="M144.7,162.5c-1.8,0-3.7-0.3-5.5-1c-8.1-3-12.3-12.1-9.2-20.2l14.5-38.9c0.1-0.2,0.3-0.4,0.5-0.6
		c0.2-0.1,0.5-0.1,0.8,0l27.6,10.3c0.5,0.2,0.8,0.8,0.6,1.3l-14.5,38.9C157.1,158.6,151.1,162.5,144.7,162.5 M146,104.1L131.9,142
		c-2.6,7.1,1,15,8.1,17.6c7.1,2.6,15-1,17.7-8.1l14.1-37.9L146,104.1z"/>
	<path class="st1" d="M133,136.3c8,1.1,16.3-1.9,21.8-8.6l5-6.2l-16.3-13.4L133,136.3z"/>
	<path class="st0" d="M174.2,110.2c4.5-6.9,3.9-16.1-1.8-22.5c-6.9-7.5-18.5-8-26-1.2l-1.5,1.4c-1.5-1.3-3.8-1.4-5.4,0.1
		c-1.5,1.4-1.7,3.7-0.5,5.3l-5.2,4.8c-7.5,6.9-8,18.5-1.2,26c6.9,7.5,18.5,8,26,1.2l4.5-4.1l3.4,1.7c3.7,1.8,8.1,0.3,9.9-3.4
		C178,116.1,177,112.3,174.2,110.2"/>
	<path class="st1" d="M146.2,131.1c-5.3,0-10.5-2.1-14.3-6.3c-3.5-3.8-5.3-8.8-5.1-14c0.2-5.2,2.5-10,6.3-13.5l4.6-4.2
		c-0.9-2-0.5-4.3,1.1-5.8c1.7-1.5,4.1-1.7,6-0.6l0.9-0.8c3.8-3.5,8.8-5.3,14-5.1c5.2,0.2,10,2.5,13.5,6.3c5.8,6.3,6.7,15.6,2.4,22.9
		c2.7,2.5,3.4,6.5,1.8,9.8c-2,4.2-7.1,5.9-11.3,3.9l-2.8-1.4l-4,3.7C155.6,129.4,150.9,131.1,146.2,131.1 M142.2,87.9
		c-0.7,0-1.5,0.3-2,0.8c-1.1,1-1.3,2.7-0.4,4c0.3,0.4,0.2,1-0.1,1.3l-5.2,4.8c-3.4,3.1-5.4,7.4-5.6,12.1c-0.2,4.6,1.4,9.1,4.5,12.5
		c6.5,7.1,17.5,7.6,24.6,1.1l4.5-4.1c0.3-0.3,0.7-0.3,1.1-0.2l3.4,1.7c3.2,1.6,7,0.2,8.6-3c1.3-2.8,0.5-6.1-1.9-7.9
		c-0.4-0.3-0.5-0.9-0.2-1.3c4.3-6.6,3.6-15.4-1.7-21.2c-6.5-7.1-17.5-7.6-24.6-1.1l-1.5,1.4c-0.4,0.3-1,0.4-1.3,0
		C143.6,88.2,142.9,87.9,142.2,87.9"/>
	<path class="st0" d="M166.7,123.9c3.7,1.8,8.1,0.3,9.9-3.4L166.7,123.9z"/>
	<path class="st1" d="M170,125.6c-1.2,0-2.5-0.3-3.7-0.8c-0.5-0.2-0.7-0.8-0.5-1.3c0.2-0.5,0.8-0.7,1.3-0.5c3.2,1.5,7,0.2,8.6-3
		c0.2-0.5,0.8-0.7,1.3-0.5c0.5,0.2,0.7,0.8,0.5,1.3C176.1,123.9,173.1,125.6,170,125.6"/>
	<path class="st0" d="M136.2,128c6.8,4.1,15.8,3.4,21.9-2.2L136.2,128z"/>
	<path class="st1" d="M145.7,131.6c-3.4,0-6.9-0.9-10-2.8c-0.5-0.3-0.6-0.9-0.3-1.4c0.3-0.5,0.9-0.6,1.4-0.3
		c6.6,3.9,15.1,3.1,20.7-2.1c0.4-0.4,1-0.3,1.4,0.1c0.4,0.4,0.3,1-0.1,1.4C155.2,129.9,150.4,131.6,145.7,131.6"/>
	<path class="st1" d="M167.8,118.4c-0.2,0-0.4-0.1-0.5-0.2c-0.5-0.3-0.6-0.9-0.3-1.4c2.1-3.2,5.5-2.5,5.7-2.5
		c0.5,0.1,0.9,0.6,0.8,1.2c-0.1,0.5-0.6,0.9-1.2,0.8c-0.1,0-2.3-0.4-3.6,1.6C168.5,118.3,168.2,118.4,167.8,118.4"/>
	<path class="st1" d="M144.3,101.2c-2.6,0-4-1.6-4.5-2.7c-0.2-0.5,0-1.1,0.5-1.3c0.5-0.2,1.1,0,1.3,0.5c0.1,0.3,1.2,2.3,4.6,1.1
		c0.5-0.2,1.1,0.1,1.3,0.6c0.2,0.5-0.1,1.1-0.6,1.3C145.9,101,145.1,101.2,144.3,101.2"/>
	<path class="st1" d="M148.3,91.1c-0.6,0.8-0.6,1.9,0,2.4c0.7,0.5,1.7,0.3,2.4-0.5c0.6-0.8,0.6-1.9,0-2.4
		C150,90.1,149,90.3,148.3,91.1"/>
	<path class="st1" d="M153.8,87.3c-0.6,0.3-0.5,1.8,0.3,3.4s1.8,2.7,2.4,2.5c0.6-0.3,0.5-1.8-0.3-3.4
		C155.4,88.1,154.4,87,153.8,87.3"/>
	<path class="st1" d="M175.2,110.6c4.5-7.2,4.3-16.7-0.9-23c-3.3-3.9-7.8-5.8-12.5-5.7c2.1,1,7.8,4.2,7.5,8.7
		C168.9,96,165.6,105.4,175.2,110.6"/>
	<path class="st1" d="M175,110.7c-0.1,0-0.1,0-0.2,0c-5-1.1-8.3-2.9-9.9-5.6c-2.2-3.6-0.9-7.9,0.1-11.4c0.5-1.7,0.9-3.2,0.9-4.3
		c-0.1-4.7-3.6-6.7-3.8-6.8c-0.5-0.3-0.7-0.9-0.4-1.4c0.3-0.5,0.9-0.7,1.4-0.4c0.2,0.1,4.7,2.6,4.8,8.5c0,1.4-0.5,3.1-1,4.9
		c-0.9,3.3-2,6.9-0.3,9.8c1.3,2.2,4.2,3.7,8.6,4.7c0.5,0.1,0.9,0.6,0.8,1.2C175.9,110.3,175.5,110.7,175,110.7"/>
	<path class="st1" d="M82.4,231.1c-0.1,0-0.2,0-0.2,0c-0.5-0.1-0.9-0.7-0.7-1.2l12.2-49.6c0.1-0.5,0.7-0.9,1.2-0.7
		c0.5,0.1,0.9,0.7,0.7,1.2l-12.2,49.6C83.2,230.8,82.8,231.1,82.4,231.1"/>
	<path class="st1" d="M192.4,231.8c-0.5,0-1-0.4-1-1l-0.7-61.8c0-0.6,0.4-1,1-1h0c0.5,0,1,0.4,1,1l0.7,61.8
		C193.4,231.3,192.9,231.8,192.4,231.8L192.4,231.8z"/>
	<path class="st1" d="M248.3,201c-1.4,0-2.9-0.1-4.3-0.3l-51.8-7.6c-0.5-0.1-0.9-0.6-0.8-1.1c0.1-0.5,0.6-0.9,1.1-0.8l51.8,7.6
		c15,2.1,29.2-7.8,32.3-22.7c2.3-10.8-1.7-21.8-10.4-28.6l-35-28c-0.4-0.3-0.5-1-0.2-1.4c0.3-0.4,1-0.5,1.4-0.2l35,27.9
		c9.3,7.3,13.6,19,11.1,30.6C275.5,190.9,262.7,201,248.3,201"/>
	<path class="st1" d="M235.1,171.3c-0.3,0-0.5-0.1-0.7-0.3l-22.2-22.3c-0.4-0.4-0.4-1,0-1.4c0.4-0.4,1-0.4,1.4,0l22.2,22.3
		c0.4,0.4,0.4,1,0,1.4C235.6,171.2,235.4,171.3,235.1,171.3"/>
	<path class="st1" d="M204.5,142.2c-0.2,0-0.4-0.1-0.6-0.2c-6.9-4.9-12.3-1.4-12.4-1.4c-0.5,0.3-1.1,0.2-1.4-0.3
		c-0.3-0.5-0.2-1.1,0.3-1.4c0.3-0.2,6.7-4.3,14.7,1.4c0.4,0.3,0.6,0.9,0.2,1.4C205.1,142,204.8,142.2,204.5,142.2"/>
</g>
</svg>
