<?xml version="1.0" encoding="utf-8"?>
<!-- Generator: Adobe Illustrator 23.0.1, SVG Export Plug-In . SVG Version: 6.00 Build 0)  -->
<svg version="1.1" id="Camada_1" xmlns="http://www.w3.org/2000/svg" xmlns:xlink="http://www.w3.org/1999/xlink" x="0px" y="0px"
	 viewBox="0 0 257.6 240.4" style="enable-background:new 0 0 257.6 240.4;" xml:space="preserve">
<style type="text/css">
	.st0{clip-path:url(#SVGID_2_);fill:#FFFFFF;}
	.st1{clip-path:url(#SVGID_2_);fill:#080717;}
	.st2{clip-path:url(#SVGID_2_);fill:#66CCFF;}
</style>
<g>
	<defs>
		<rect id="SVGID_1_" width="257.6" height="240.4"/>
	</defs>
	<clipPath id="SVGID_2_">
		<use xlink:href="#SVGID_1_"  style="overflow:visible;"/>
	</clipPath>
	<path class="st0" d="M104.3,12.8H14.6C7.1,12.8,1,18.9,1,26.4v121.7h103.3v-107V12.8z"/>
	<path class="st1" d="M104.3,149.1H1c-0.6,0-1-0.4-1-1V26.4c0-8.1,6.6-14.6,14.6-14.6h89.7c0.6,0,1,0.4,1,1v135.3
		C105.3,148.6,104.9,149.1,104.3,149.1 M2,147.1h101.3V13.8H14.6C7.7,13.8,2,19.4,2,26.4V147.1z"/>
	<path class="st2" d="M26.1,25h91.4c-0.2-7.3-6.2-13.3-13.5-13.3H13.7c-0.2,0-0.4,0-0.5,0C20.3,12,26,17.8,26.1,25"/>
	<path class="st0" d="M70.5,90.9l-9.7,10.2l-9.2,6.2c-3,2-5.1,5.2-5.6,8.8l0,0.2l-0.6,0.5c-3.3,3-4.8,7.5-4,11.9l1.5,8.9l-8.6-5.4
		l0.3-11.9c-0.1-2.4-1.6-4.5-3.7-5.4L29,114c-1.5-0.7-3.3,0.4-3.3,2.1L25,134.7c-0.1,2.9,1.3,5.6,3.7,7.1l13.1,8.6
		c3.5,7.5,9.3,13.7,16.6,17.7l12.3,6.6l37.9,47.6l23.7-30.9l-43-45.4l3.8-3.9c3.5-3.6,4.9-8.8,3.6-13.7l-5-19
		c-0.5-1.9-2.5-2.8-4.3-2l-1.4,0.7c-3.1,1.4-4.8,4.7-4.4,8l1.2,9.1c0.4,2.8-0.8,5.7-3,7.4l0,0l-14-19.6l8.3-12.9
		c1.4-2.1,1.8-4.7,1.1-7.2l-0.3-1C74.1,90.1,71.8,89.6,70.5,90.9"/>
	<path class="st1" d="M108.5,223.4c-0.3,0-0.6-0.1-0.8-0.4L70,175.5L57.9,169c-7.4-4-13.4-10.3-16.9-17.9l-12.8-8.4
		c-2.7-1.8-4.3-4.8-4.1-8l0.7-18.6c0-1.1,0.6-2.1,1.6-2.7c1-0.6,2.1-0.7,3.1-0.2l1.8,0.8c2.5,1.1,4.2,3.5,4.3,6.3l-0.2,11.5l6.2,3.9
		l-1.2-6.6c-0.8-4.7,0.8-9.5,4.3-12.8l0.3-0.3c0.6-3.8,2.8-7.2,6-9.4l9.2-6.2l9.7-10.1c0.9-0.9,2.1-1.3,3.3-1
		c1.2,0.3,2.1,1.2,2.5,2.4l0.3,1c0.7,2.7,0.3,5.6-1.2,8L66.7,113l13,18.2c1.5-1.6,2.2-3.7,1.9-5.8l-1.2-9.1c-0.5-3.8,1.5-7.4,5-9
		l1.4-0.7c1.1-0.5,2.4-0.5,3.5,0c1.1,0.5,1.9,1.5,2.2,2.7l5,19c1.4,5.2-0.1,10.8-3.8,14.7l-3.1,3.2l42.4,44.7
		c0.3,0.4,0.4,0.9,0.1,1.3L109.3,223C109.1,223.2,108.9,223.3,108.5,223.4L108.5,223.4z M28,114.8c-0.2,0-0.5,0.1-0.7,0.2
		c-0.4,0.2-0.6,0.6-0.6,1.1L26,134.7c-0.1,2.5,1.2,4.9,3.2,6.3l13.1,8.6c0.2,0.1,0.3,0.2,0.4,0.4c3.4,7.3,9.1,13.4,16.2,17.2
		l12.3,6.6c0.1,0.1,0.2,0.1,0.3,0.3l37.1,46.6l22.4-29.2l-42.4-44.8c-0.4-0.4-0.4-1,0-1.4l3.8-3.9c3.2-3.4,4.5-8.2,3.3-12.8l-5-19
		c-0.2-0.6-0.6-1.1-1.1-1.4c-0.6-0.3-1.2-0.3-1.8,0l-1.4,0.7c-2.7,1.2-4.2,4-3.8,7l1.2,9.1c0.4,3.2-0.9,6.4-3.4,8.4
		c-0.2,0.2-0.5,0.3-0.8,0.2c-0.3,0-0.5-0.2-0.7-0.4l-14.1-19.6c-0.2-0.3-0.2-0.8,0-1.1l8.3-12.9c1.2-1.9,1.6-4.2,1-6.3l-0.3-1
		c-0.1-0.5-0.5-0.9-1-1c-0.5-0.1-1,0-1.4,0.4l-9.7,10.2c0,0.1-0.1,0.1-0.2,0.1l-9.2,6.2c-2.8,1.9-4.7,4.9-5.2,8.2l0,0.2
		c0,0.2-0.1,0.4-0.3,0.6l-0.6,0.5c-3,2.8-4.4,6.9-3.7,11l1.5,8.9c0.1,0.4-0.1,0.8-0.4,1c-0.3,0.2-0.8,0.2-1.1,0l-8.6-5.4
		c-0.3-0.2-0.5-0.5-0.5-0.9l0.3-11.9c-0.1-1.9-1.3-3.7-3.2-4.5l-1.8-0.8C28.4,114.9,28.2,114.8,28,114.8 M60.8,101.1L60.8,101.1
		L60.8,101.1z"/>
	<path class="st1" d="M58.3,130c-0.4,0-0.8-0.3-0.9-0.7l-4.9-13.4c-1-2.7-0.4-5.7,1.4-7.9l6.2-7.5c0.4-0.4,1-0.5,1.4-0.1
		c0.4,0.4,0.5,1,0.1,1.4l-6.2,7.5c-1.4,1.7-1.8,3.9-1,5.9l4.9,13.4c0.2,0.5-0.1,1.1-0.6,1.3C58.5,130,58.4,130,58.3,130"/>
	<path class="st1" d="M51.5,134.8c-0.4,0-0.8-0.3-0.9-0.7l-6.2-16.9c-0.2-0.5,0.1-1.1,0.6-1.3c0.5-0.2,1.1,0.1,1.3,0.6l6.2,16.9
		c0.2,0.5-0.1,1.1-0.6,1.3C51.7,134.8,51.6,134.8,51.5,134.8"/>
	<path class="st1" d="M44.3,141.5c-0.4,0-0.7-0.2-0.9-0.6l-1.5-2.9c-0.2-0.5,0-1.1,0.4-1.3c0.5-0.2,1.1,0,1.3,0.4l1.5,2.9
		c0.2,0.5,0,1.1-0.4,1.3C44.6,141.5,44.4,141.5,44.3,141.5"/>
	<path class="st0" d="M55.8,182.7L76,92.5l7.8-13.1l1.5,15.2l-20.2,90.2C61.9,186.3,58.1,185.4,55.8,182.7"/>
	<path class="st1" d="M55.8,182.7L76,92.5l9.3,2.1l-20.2,90.2C61.9,186.3,58.1,185.4,55.8,182.7"/>
	<path class="st1" d="M61.8,186.5c-2.6,0-5.1-1.1-6.8-3.2c-0.2-0.2-0.3-0.6-0.2-0.9L75,92.2c0-0.1,0.1-0.2,0.1-0.3l7.8-13.1
		c0.2-0.4,0.7-0.6,1.1-0.5c0.4,0.1,0.7,0.4,0.8,0.9l1.5,15.2c0,0.1,0,0.2,0,0.3L66.1,185c-0.1,0.3-0.3,0.6-0.6,0.7
		C64.4,186.3,63.1,186.5,61.8,186.5 M56.9,182.4c1.9,2,4.8,2.6,7.4,1.6l20-89.6l-1.2-12l-6.2,10.4L56.9,182.4z"/>
	<path class="st1" d="M122.7,91.7L149.2,27c10.7-26,42.9-35.2,65.7-18.8l6.4,4.6l14.3,13.8C250.5,41,251.5,64.4,238,80l-5.6,6.4
		c-7.6,8.8-18.7,13.8-30.3,13.8l-74-0.3C124,99.8,121.1,95.6,122.7,91.7"/>
	
		<rect x="182.2" y="55.3" transform="matrix(0.9811 -0.1935 0.1935 0.9811 -12.2116 39.4942)" class="st0" width="27.9" height="53.9"/>
	<path class="st1" d="M187.6,112.4c-0.2,0-0.4-0.1-0.6-0.2c-0.2-0.1-0.4-0.4-0.4-0.6l-10.4-52.9c-0.1-0.3,0-0.5,0.1-0.8
		c0.1-0.2,0.4-0.4,0.6-0.4l27.4-5.4c0.5-0.1,1.1,0.2,1.2,0.8l10.4,52.9c0.1,0.5-0.2,1.1-0.8,1.2l-27.4,5.4
		C187.8,112.4,187.7,112.4,187.6,112.4 M178.4,59.3l10,51l25.4-5l-10-51L178.4,59.3z"/>
	<path class="st0" d="M149.7,43.5l3.3,19.7c2,11.9,14.8,18.7,25.8,13.5l15.2-7.1c11.7-5.5,15.6-20.2,8.2-30.8l-18.2-25.9l-18.4,5.4
		C154.6,21.5,147.8,32.3,149.7,43.5"/>
	<path class="st1" d="M174.5,8.6l7.6,20.2l-36.9,13.4l-1.5-12.4c-1.1-9.2,5.2-17.6,14.1-18.9L174.5,8.6z"/>
	<path class="st0" d="M215.7,42.2c0,5.7-4.6,10.3-10.3,10.3s-10.3-4.6-10.3-10.3c0-5.7,4.6-10.3,10.3-10.3S215.7,36.5,215.7,42.2"/>
	<path class="st1" d="M174.4,13.8l16.5,20.6c4,5,10.6,5,14.7,0l5.7-7.1l-15.4-16.5c-4.9-5.2-13-5.3-18.1-0.4L174.4,13.8z"/>
	<path class="st1" d="M116.7,93.3c-0.2,0-0.3,0-0.5-0.1c-0.5-0.3-0.6-0.9-0.4-1.4c13.1-23,31.3-67,31.5-67.5
		c0.2-0.5,0.8-0.8,1.3-0.5c0.5,0.2,0.8,0.8,0.5,1.3c-0.2,0.4-18.4,44.6-31.6,67.7C117.4,93.1,117,93.3,116.7,93.3"/>
	<path class="st0" d="M195.9,61.7c0,0-4,8.9-15,15.3L195.9,61.7z"/>
	<path class="st1" d="M180.9,78c-0.3,0-0.7-0.2-0.9-0.5c-0.3-0.5-0.1-1.1,0.4-1.4C191,70,194.9,61.4,195,61.3
		c0.2-0.5,0.8-0.7,1.3-0.5c0.5,0.2,0.7,0.8,0.5,1.3c-0.2,0.4-4.3,9.3-15.4,15.8C181.2,78,181.1,78,180.9,78"/>
	<path class="st1" d="M149.4,47.3c-0.2,0-0.5-0.1-0.6-0.2c-0.4-0.4-0.5-1-0.1-1.4c1.9-2.3,4.5-3,4.6-3.1c0.5-0.2,1.1,0.2,1.2,0.7
		c0.2,0.5-0.2,1.1-0.7,1.2c0,0-2.2,0.7-3.6,2.4C149.9,47.1,149.6,47.3,149.4,47.3"/>
	<path class="st1" d="M165.5,41.4c-0.4,0-0.8-0.3-1-0.7c-0.2-0.5,0.1-1.1,0.7-1.3c0.6-0.2,6-1.8,9-0.3c0.5,0.2,0.7,0.8,0.4,1.3
		c-0.2,0.5-0.8,0.7-1.3,0.4c-2-1-6.1,0-7.5,0.4C165.7,41.4,165.6,41.4,165.5,41.4"/>
	<path class="st0" d="M161.4,49.5l-1.1,1.9c-1,1.7,0.2,3.9,2.3,3.9h1.9L161.4,49.5z"/>
	<path class="st1" d="M164.5,56.4h-1.9c-1.3,0-2.5-0.7-3.1-1.8c-0.7-1.1-0.6-2.5,0-3.6l1.1-1.9c0.3-0.5,0.9-0.6,1.4-0.4
		c0.5,0.3,0.6,0.9,0.4,1.4l-1.1,1.9c-0.3,0.5-0.3,1.1,0,1.6s0.8,0.8,1.4,0.8h1.9c0.6,0,1,0.4,1,1C165.5,55.9,165.1,56.4,164.5,56.4"
		/>
	<path class="st1" d="M171.3,72.1c-2.3,0-5.2-1.5-9-4.4c-0.3-0.2-0.4-0.5-0.4-0.8c0-0.3,0.2-0.6,0.5-0.8l11.5-6.9
		c0.3-0.2,0.6-0.2,0.9-0.1c0.3,0.1,0.5,0.4,0.6,0.7c0.2,0.9,2,9.3-1.8,11.7C172.9,71.9,172.2,72.1,171.3,72.1 M164.7,67
		c4.9,3.6,7,3.3,7.8,2.8c1.8-1.2,1.6-5.5,1.2-8.2L164.7,67z"/>
	<path class="st1" d="M171.3,47c0,1.4-1.1,2.5-2.5,2.5c-1.4,0-2.5-1.1-2.5-2.5c0-1.4,1.1-2.5,2.5-2.5
		C170.2,44.5,171.3,45.6,171.3,47"/>
	<path class="st1" d="M157.7,50.1c0,1.4-1.1,2.5-2.5,2.5c-1.4,0-2.5-1.1-2.5-2.5c0-1.4,1.1-2.5,2.5-2.5
		C156.5,47.6,157.7,48.7,157.7,50.1"/>
	<path class="st2" d="M257.6,216.6v-75.3c0-8.1-2.5-16-7.1-22.7l-5.1-7.2c-10.3-14.8-29.3-20.7-46.2-14.4l-13.9,5.1L161.3,138
		c-6,9-6.6,20.6-1.6,30.1v48.5H257.6z"/>
	<path class="st1" d="M205.4,52.5l-7.7,46.7c0,0,14.2,0.9,24.2-4.6C232,89.1,205.4,52.5,205.4,52.5"/>
	<path class="st1" d="M75.8,58.7c-2.1,0-3.2-0.6-4.2-1.2c-0.9-0.5-1.6-0.9-3.3-0.9c-1.6,0-2.4,0.4-3.3,0.9c-1,0.5-2.1,1.2-4.2,1.2
		c-2.1,0-3.2-0.6-4.2-1.2c-0.9-0.5-1.6-0.9-3.3-0.9c-1.6,0-2.4,0.4-3.3,0.9c-1,0.5-2.1,1.2-4.2,1.2c-2.1,0-3.2-0.6-4.2-1.2
		c-0.9-0.5-1.6-0.9-3.3-0.9c-1.6,0-2.4,0.4-3.3,0.9c-1,0.5-2.1,1.2-4.2,1.2c-2.1,0-3.2-0.6-4.2-1.2c-0.9-0.5-1.6-0.9-3.3-0.9
		c-0.6,0-1-0.4-1-1s0.4-1,1-1c2.1,0,3.2,0.6,4.2,1.2c0.9,0.5,1.6,0.9,3.3,0.9c1.6,0,2.4-0.4,3.3-0.9c1-0.5,2.1-1.2,4.2-1.2
		c2.1,0,3.2,0.6,4.2,1.2c0.9,0.5,1.6,0.9,3.3,0.9c1.6,0,2.4-0.4,3.3-0.9c1-0.5,2.1-1.2,4.2-1.2c2.1,0,3.2,0.6,4.2,1.2
		c0.9,0.5,1.6,0.9,3.3,0.9c1.6,0,2.4-0.4,3.3-0.9c1-0.5,2.1-1.2,4.2-1.2c2.1,0,3.2,0.6,4.2,1.2c0.9,0.5,1.6,0.9,3.3,0.9
		c1.6,0,2.4-0.4,3.3-0.9c1-0.5,2.1-1.2,4.2-1.2c0.6,0,1,0.4,1,1s-0.4,1-1,1c-1.6,0-2.4,0.4-3.3,0.9C79,58.1,77.9,58.7,75.8,58.7"/>
	<path class="st1" d="M75.8,66.9c-2.1,0-3.2-0.6-4.2-1.2c-0.9-0.5-1.6-0.9-3.3-0.9c-1.6,0-2.4,0.4-3.3,0.9c-1,0.5-2.1,1.2-4.2,1.2
		c-2.1,0-3.2-0.6-4.2-1.2c-0.9-0.5-1.6-0.9-3.3-0.9c-1.6,0-2.4,0.4-3.3,0.9c-1,0.5-2.1,1.2-4.2,1.2c-2.1,0-3.2-0.6-4.2-1.2
		c-0.9-0.5-1.6-0.9-3.3-0.9c-1.6,0-2.4,0.4-3.3,0.9c-1,0.5-2.1,1.2-4.2,1.2c-2.1,0-3.2-0.6-4.2-1.2c-0.9-0.5-1.6-0.9-3.3-0.9
		c-0.6,0-1-0.4-1-1s0.4-1,1-1c2.1,0,3.2,0.6,4.2,1.2c0.9,0.5,1.6,0.9,3.3,0.9c1.6,0,2.4-0.4,3.3-0.9c1-0.5,2.1-1.2,4.2-1.2
		c2.1,0,3.2,0.6,4.2,1.2c0.9,0.5,1.6,0.9,3.3,0.9c1.6,0,2.4-0.4,3.3-0.9c1-0.5,2.1-1.2,4.2-1.2c2.1,0,3.2,0.6,4.2,1.2
		c0.9,0.5,1.6,0.9,3.3,0.9c1.6,0,2.4-0.4,3.3-0.9c1-0.5,2.1-1.2,4.2-1.2c2.1,0,3.2,0.6,4.2,1.2c0.9,0.5,1.6,0.9,3.3,0.9
		c1.6,0,2.4-0.4,3.3-0.9c1-0.5,2.1-1.2,4.2-1.2c0.6,0,1,0.4,1,1s-0.4,1-1,1c-1.6,0-2.4,0.4-3.3,0.9C79,66.3,77.9,66.9,75.8,66.9"/>
	<path class="st1" d="M75.8,75.1c-2.1,0-3.2-0.6-4.2-1.2c-0.9-0.5-1.6-0.9-3.3-0.9c-1.6,0-2.4,0.4-3.3,0.9c-1,0.5-2.1,1.2-4.2,1.2
		c-2.1,0-3.2-0.6-4.2-1.2c-0.9-0.5-1.6-0.9-3.3-0.9c-1.6,0-2.4,0.4-3.3,0.9c-1,0.5-2.1,1.2-4.2,1.2c-2.1,0-3.2-0.6-4.2-1.2
		c-0.9-0.5-1.6-0.9-3.3-0.9c-1.6,0-2.4,0.4-3.3,0.9c-1,0.5-2.1,1.2-4.2,1.2c-2.1,0-3.2-0.6-4.2-1.2c-0.9-0.5-1.6-0.9-3.3-0.9
		c-0.6,0-1-0.4-1-1s0.4-1,1-1c2.1,0,3.2,0.6,4.2,1.2c0.9,0.5,1.6,0.9,3.3,0.9c1.6,0,2.4-0.4,3.3-0.9c1-0.5,2.1-1.2,4.2-1.2
		c2.1,0,3.2,0.6,4.2,1.2c0.9,0.5,1.6,0.9,3.3,0.9c1.6,0,2.4-0.4,3.3-0.9c1-0.5,2.1-1.2,4.2-1.2c2.1,0,3.2,0.6,4.2,1.2
		c0.9,0.5,1.6,0.9,3.3,0.9c1.6,0,2.4-0.4,3.3-0.9c1-0.5,2.1-1.2,4.2-1.2c2.1,0,3.2,0.6,4.2,1.2c0.9,0.5,1.6,0.9,3.3,0.9
		c1.6,0,2.4-0.4,3.3-0.9c1-0.5,2.1-1.2,4.2-1.2c0.6,0,1,0.4,1,1s-0.4,1-1,1c-1.6,0-2.4,0.4-3.3,0.9C79,74.5,77.9,75.1,75.8,75.1"/>
	<path class="st1" d="M75.8,83.4c-2.1,0-3.2-0.6-4.2-1.2c-0.9-0.5-1.6-0.9-3.3-0.9c-1.6,0-2.4,0.4-3.3,0.9c-1,0.5-2.1,1.2-4.2,1.2
		c-2.1,0-3.2-0.6-4.2-1.2c-0.9-0.5-1.6-0.9-3.3-0.9c-1.6,0-2.4,0.4-3.3,0.9c-1,0.5-2.1,1.2-4.2,1.2c-2.1,0-3.2-0.6-4.2-1.2
		c-0.9-0.5-1.6-0.9-3.3-0.9c-1.6,0-2.4,0.4-3.3,0.9c-1,0.5-2.1,1.2-4.2,1.2c-2.1,0-3.2-0.6-4.2-1.2c-0.9-0.5-1.6-0.9-3.3-0.9
		c-0.6,0-1-0.4-1-1s0.4-1,1-1c2.1,0,3.2,0.6,4.2,1.2c0.9,0.5,1.6,0.9,3.3,0.9c1.6,0,2.4-0.4,3.3-0.9c1-0.5,2.1-1.2,4.2-1.2
		c2.1,0,3.2,0.6,4.2,1.2c0.9,0.5,1.6,0.9,3.3,0.9c1.6,0,2.4-0.4,3.3-0.9c1-0.5,2.1-1.2,4.2-1.2c2.1,0,3.2,0.6,4.2,1.2
		c0.9,0.5,1.6,0.9,3.3,0.9c1.6,0,2.4-0.4,3.3-0.9c1-0.5,2.1-1.2,4.2-1.2c2.1,0,3.2,0.6,4.2,1.2c0.9,0.5,1.6,0.9,3.3,0.9
		c1.6,0,2.4-0.4,3.3-0.9c1-0.5,2.1-1.2,4.2-1.2c0.6,0,1,0.4,1,1s-0.4,1-1,1c-1.6,0-2.4,0.4-3.3,0.9C79,82.7,77.9,83.4,75.8,83.4"/>
	<path class="st2" d="M196.3,112.9l-54.4,83.7l-9.8-7.9l-25.9,32.6l7.8,7.7c16.5,16.3,43.4,15.1,58.4-2.6l47.7-56.3L196.3,112.9z"/>
	<path class="st1" d="M159.7,169.2c-0.2,0-0.4-0.1-0.6-0.2c-0.5-0.3-0.6-0.9-0.3-1.4l33.5-48.7c0.3-0.5,0.9-0.6,1.4-0.3
		c0.5,0.3,0.6,0.9,0.3,1.4l-33.5,48.7C160.4,169,160.1,169.2,159.7,169.2"/>
	<path class="st1" d="M180.2,217.5c-0.2,0-0.4-0.1-0.5-0.2c-0.5-0.3-0.6-0.9-0.3-1.4l29.8-46.6c0.3-0.5,0.9-0.6,1.4-0.3
		c0.5,0.3,0.6,0.9,0.3,1.4L181,217.1C180.9,217.4,180.5,217.5,180.2,217.5"/>
</g>
</svg>
