<?xml version="1.0" encoding="utf-8"?>
<!-- Generator: Adobe Illustrator 23.0.1, SVG Export Plug-In . SVG Version: 6.00 Build 0)  -->
<svg version="1.1" id="Camada_1" xmlns="http://www.w3.org/2000/svg" xmlns:xlink="http://www.w3.org/1999/xlink" x="0px" y="0px"
	 viewBox="0 0 291.7 234.4" style="enable-background:new 0 0 291.7 234.4;" xml:space="preserve">
<style type="text/css">
	.st0{clip-path:url(#SVGID_2_);fill:#66CCFF;}
	.st1{clip-path:url(#SVGID_2_);fill:#080717;}
	.st2{clip-path:url(#SVGID_2_);fill:#FFFFFF;}
</style>
<g>
	<defs>
		<rect id="SVGID_1_" width="291.7" height="234.4"/>
	</defs>
	<clipPath id="SVGID_2_">
		<use xlink:href="#SVGID_1_"  style="overflow:visible;"/>
	</clipPath>
	<path class="st0" d="M88.3,101.2L19,102.1c-8.8,0.1-16-6.9-16.1-15.8L2,17C1.9,8.2,8.9,1,17.8,0.8L87.1,0c8.8-0.1,16,6.9,16.1,15.7
		l0.8,69.3C104.2,93.9,97.1,101.1,88.3,101.2"/>
	<path class="st1" d="M42.4,71.7c-0.3,0-0.5-0.1-0.7-0.3L28.6,58.4c-0.4-0.4-0.4-1,0-1.4c0.4-0.4,1-0.4,1.4,0l12.4,12.4L76,35.7
		c0.4-0.4,1-0.4,1.4,0c0.4,0.4,0.4,1,0,1.4L43.1,71.4C42.9,71.6,42.6,71.7,42.4,71.7"/>
	<path class="st2" d="M18.8,214.4c-9.2,0-16.8-7.5-16.9-16.7L1,128.3c-0.1-4.5,1.7-8.8,4.8-12c3.2-3.2,7.4-5.1,11.9-5.1l69.5-0.8
		c9.2,0,16.8,7.5,16.9,16.7l0.8,69.3c0.1,4.5-1.7,8.8-4.8,12c-3.2,3.2-7.4,5.1-11.9,5.1L18.8,214.4z"/>
	<path class="st1" d="M87.3,111.3c8.7,0,15.8,7,15.9,15.8l0.8,69.3c0.1,8.8-6.9,16-15.8,16.1L19,213.4c-0.1,0-0.1,0-0.2,0
		c-8.7,0-15.8-7-15.9-15.8L2,128.3c-0.1-8.8,6.9-16,15.8-16.1l69.3-0.8C87.2,111.3,87.2,111.3,87.3,111.3 M87.3,109.3L87.3,109.3
		h-0.2l-69.3,0.8c-4.8,0.1-9.3,2-12.6,5.4c-3.3,3.4-5.2,8-5.1,12.8l0.8,69.3c0.1,9.8,8.2,17.7,17.9,17.7l0.2,0l69.3-0.8
		c9.9-0.1,17.8-8.3,17.7-18.2l-0.8-69.3C105.1,117.3,97.1,109.3,87.3,109.3"/>
	<path class="st1" d="M42.4,183.1c-0.3,0-0.5-0.1-0.7-0.3l-13.1-13.1c-0.4-0.4-0.4-1,0-1.4c0.4-0.4,1-0.4,1.4,0l12.4,12.4L76,147
		c0.4-0.4,1-0.4,1.4,0c0.4,0.4,0.4,1,0,1.4l-34.4,34.4C42.9,183,42.6,183.1,42.4,183.1"/>
	<path class="st2" d="M165.2,71.8l-34.8,34.8l3.4,3.4c6.2,6.2,16.3,6.2,22.5,0l20.5-20.5L165.2,71.8z"/>
	<path class="st1" d="M145.1,115.6c-4.3,0-8.7-1.7-12-5l-3.4-3.4c-0.4-0.4-0.4-1,0-1.4L164.5,71c0.2-0.2,0.5-0.3,0.8-0.3
		c0.3,0,0.6,0.2,0.7,0.4l11.6,17.7c0.3,0.4,0.2,0.9-0.1,1.3l-20.5,20.5C153.8,113.9,149.4,115.6,145.1,115.6 M131.8,106.5l2.7,2.7
		c5.8,5.8,15.3,5.8,21.1,0l19.9-19.9l-10.5-16L131.8,106.5z"/>
	<path class="st2" d="M160.5,70.8l-46.6,15.7l1.5,4.6c2.8,8.3,11.8,12.8,20.2,10l27.4-9.2L160.5,70.8z"/>
	<path class="st1" d="M130.6,102.9c-7.1,0-13.7-4.5-16.1-11.5l-1.5-4.6c-0.2-0.5,0.1-1.1,0.6-1.3l46.6-15.7c0.3-0.1,0.6-0.1,0.9,0.1
		c0.3,0.2,0.4,0.4,0.5,0.7l2.6,21c0.1,0.5-0.2,0.9-0.7,1.1L136,102C134.2,102.6,132.4,102.9,130.6,102.9 M115.2,87.1l1.2,3.6
		c2.6,7.8,11.1,12,18.9,9.4l26.7-9l-2.3-19L115.2,87.1z"/>
	<path class="st2" d="M249.3,233.4l-51-51l-31.2-31.2C156,140,149.7,125,149.7,109.3V49.9h-41c-9.5,0-17.3-7.7-17.3-17.3v-5.2h82.8
		l50.1,32.7l18.4,83.9l47.9,47.9L249.3,233.4z"/>
	<path class="st1" d="M249.3,234.4c-0.3,0-0.5-0.1-0.7-0.3l-82.2-82.2c-11.4-11.4-17.6-26.5-17.6-42.6V50.9h-40
		c-10.1,0-18.3-8.2-18.3-18.3v-5.2c0-0.6,0.4-1,1-1h82.8c0.2,0,0.4,0.1,0.5,0.2l50.1,32.7c0.2,0.1,0.4,0.4,0.4,0.6l18.3,83.6
		l47.7,47.7c0.4,0.4,0.4,1,0,1.4c-0.4,0.4-1,0.4-1.4,0l-47.9-47.9c-0.1-0.1-0.2-0.3-0.3-0.5l-18.3-83.5L174,28.4H92.4v4.2
		c0,9,7.3,16.3,16.3,16.3h41c0.6,0,1,0.4,1,1v59.3c0,15.5,6.1,30.2,17,41.2l82.2,82.2c0.4,0.4,0.4,1,0,1.4
		C249.8,234.3,249.6,234.4,249.3,234.4"/>
	<path class="st2" d="M155.5,63.7h-49.2v4.8c0,8.8,7.1,15.9,15.9,15.9h29L155.5,63.7z"/>
	<path class="st1" d="M151.2,85.5h-29c-9.3,0-16.9-7.6-16.9-16.9v-4.8c0-0.6,0.4-1,1-1h49.2c0.3,0,0.6,0.1,0.8,0.4s0.3,0.5,0.2,0.8
		l-4.3,20.7C152.1,85.1,151.7,85.5,151.2,85.5 M107.3,64.7v3.8c0,8.2,6.7,14.9,14.9,14.9h28.1l3.9-18.7H107.3z"/>
	<path class="st1" d="M263.2,48.2l-174,1.3L61.2,62.5l26.6,12.5l174-1.3l1-1.6c4.1-6.9,4.5-15.5,0.9-22.7L263.2,48.2z"/>
	<path class="st2" d="M253.4,74L253.4,74c-0.6,0-1-0.5-1-1l0.6-23.9c0-0.6,0.4-1,1-1c0.6,0,1,0.5,1,1L254.4,73
		C254.4,73.5,254,74,253.4,74"/>
	<polygon class="st2" points="73.5,56.8 61.2,62.5 73.5,68.2 	"/>
	<path class="st2" d="M181.9,91.4l-49.6-49.6l-0.2,0.3c-7.6,8.8-8,21.7-0.9,30.8l18.7,27.4L181.9,91.4z"/>
	<path class="st1" d="M150,101.3c-0.3,0-0.6-0.2-0.8-0.4l-18.7-27.4c-7.3-9.5-6.9-23,0.9-32.1l0.2-0.3c0.2-0.2,0.4-0.3,0.7-0.3
		c0.3,0,0.5,0.1,0.7,0.3l49.6,49.6c0.4,0.4,0.4,1,0,1.4c-0.4,0.4-1,0.4-1.4,0l-48.8-48.8c-6.8,8.4-7,20.5-0.4,29l18.8,27.4
		c0.3,0.5,0.2,1.1-0.3,1.4C150.3,101.2,150.2,101.3,150,101.3"/>
</g>
</svg>
