<?xml version="1.0" encoding="utf-8"?>
<!-- Generator: Adobe Illustrator 23.0.1, SVG Export Plug-In . SVG Version: 6.00 Build 0)  -->
<svg version="1.1" id="Camada_1" xmlns="http://www.w3.org/2000/svg" xmlns:xlink="http://www.w3.org/1999/xlink" x="0px" y="0px"
	 viewBox="0 0 301.7 239.6" style="enable-background:new 0 0 301.7 239.6;" xml:space="preserve">
<style type="text/css">
	.st0{clip-path:url(#SVGID_2_);fill:#080717;}
	.st1{clip-path:url(#SVGID_2_);fill:#66CCFF;}
	.st2{clip-path:url(#SVGID_2_);fill:#FFFFFF;}
</style>
<g>
	<defs>
		<rect id="SVGID_1_" width="301.7" height="239.6"/>
	</defs>
	<clipPath id="SVGID_2_">
		<use xlink:href="#SVGID_1_"  style="overflow:visible;"/>
	</clipPath>
	<path class="st0" d="M224.9,106.7c0,23.7-19.2,42.9-42.9,42.9s-42.9-19.2-42.9-42.9s19.2-42.9,42.9-42.9S224.9,83.1,224.9,106.7"/>
	<path class="st0" d="M264.8,78c0,14.4-11.7,26.1-26.1,26.1c-14.4,0-26.1-11.7-26.1-26.1c0-14.4,11.7-26.1,26.1-26.1
		C253.1,51.9,264.8,63.6,264.8,78"/>
	<path class="st1" d="M164.4,102.9l68.4-36.9c8.2-4.4,18.3-1.7,23.2,6.2L269,93.6l-56.8,37.2L164.4,102.9z"/>
	<path class="st0" d="M232.9,42.9c0,23.7-19.2,42.9-42.9,42.9c-23.7,0-42.9-19.2-42.9-42.9S166.3,0,190,0
		C213.7,0,232.9,19.2,232.9,42.9"/>
	<path class="st2" d="M176.4,70.5c1.3,0.1,2.6,0,3.9-0.1l4.9,19.9l-12.3,6l-0.1,0c6.1,10.7,14.4,17.2,23.4,17.2
		c15.5,0,28.6-19.2,32.9-45.6c-5.4,1.7-10.7,4.2-15.5,7.4l-4.9-19.9c1.1,0.4,2.2,0.5,3.4,0.4c5.4-0.7,9-7.4,7.9-14.9
		c-1.1-6.9-6.1-12-11.1-11.4c-3.7,0.4-6.5,3.6-7.6,7.9c-1.1-13.4-9.5-24-20.5-24.8c-12.5-0.9-23.6,11.3-24.8,27.3
		S163.9,69.6,176.4,70.5"/>
	<path class="st0" d="M196.1,114.5c-9.1,0-17.7-6.3-24.2-17.7c-0.1-0.2-0.2-0.5-0.1-0.8c0.1-0.3,0.2-0.5,0.5-0.6
		c0,0,0.1-0.1,0.1-0.1l11.6-5.6l-4.5-18.3c-1.1,0.1-2.1,0.1-3.2,0c-6.4-0.5-12.1-4.1-16.1-10.1c-4-6-5.9-13.6-5.3-21.6
		c1.2-16.5,12.8-29.2,25.8-28.2c10.2,0.8,18.5,9.8,20.9,22c1.6-2.9,4.1-4.7,7-5.1c5.6-0.7,11.1,4.8,12.2,12.2
		c0.7,4.6-0.3,9.1-2.6,12.3c-1.6,2.2-3.7,3.5-6.1,3.8c-0.7,0.1-1.4,0.1-2.2,0l4.2,17c4.5-2.9,9.4-5.2,14.6-6.8c0.3-0.1,0.7,0,1,0.2
		c0.3,0.2,0.4,0.6,0.3,0.9C225.5,95.8,211.8,114.5,196.1,114.5 M174.1,96.7c6.1,10.2,13.9,15.8,22,15.8c14.2,0,27.1-17.7,31.7-43.2
		c-4.9,1.7-9.5,4-13.7,6.8c-0.3,0.2-0.6,0.2-0.9,0.1c-0.3-0.1-0.5-0.4-0.6-0.7l-4.9-19.9c-0.1-0.4,0-0.7,0.3-1
		c0.3-0.2,0.7-0.3,1-0.2c1,0.4,2,0.5,3,0.4c1.8-0.2,3.5-1.3,4.8-3c2-2.7,2.9-6.7,2.2-10.8c-1-6.4-5.5-11.1-10-10.6
		c-3.1,0.4-5.7,3.1-6.8,7.2c-0.1,0.5-0.6,0.8-1.1,0.7c-0.5,0-0.9-0.4-0.9-0.9c-1.1-13.1-9.3-23.2-19.5-23.9
		c-11.9-0.9-22.5,11-23.7,26.4c-0.6,7.5,1.2,14.7,4.9,20.4c3.7,5.5,8.9,8.8,14.6,9.2c1.2,0.1,2.4,0,3.6-0.1c0.5-0.1,1,0.3,1.1,0.8
		l4.9,19.9c0.1,0.5-0.1,0.9-0.5,1.1L174.1,96.7z"/>
	<path class="st0" d="M202.5,32.3c-0.2,0.2-0.4,0.3-0.7,0.5c-12.7,9-32.3,3.4-43.8-12.5c-0.1-0.2-0.2-0.4-0.4-0.5
		c3.7-4.2,8.5-7,13.9-8C184.2,9.6,196.7,18.4,202.5,32.3"/>
	<path class="st0" d="M180.9,71.2c-0.4,0-0.9-0.3-1-0.8c-0.1-0.5,0.2-1.1,0.7-1.2c6.3-1.6,11.8-6.7,15.1-13.9
		c0.2-0.5,0.8-0.7,1.3-0.5c0.5,0.2,0.7,0.8,0.5,1.3c-3.6,7.8-9.6,13.3-16.4,15C181,71.2,180.9,71.2,180.9,71.2"/>
	<path class="st0" d="M162.6,42.3c0.5,0.6-0.4,2.3-2.1,3.8c-1.7,1.5-3.5,2.1-4,1.5c-0.5-0.6,0.4-2.3,2.1-3.8
		C160.2,42.3,162,41.7,162.6,42.3"/>
	<path class="st0" d="M182.6,41.8c0,1-2.3,1.8-5.1,1.7c-2.8-0.1-5-0.9-5-1.9c0-1,2.3-1.8,5.1-1.7C180.4,39.9,182.6,40.8,182.6,41.8"
		/>
	<path class="st0" d="M168.9,55.8c-0.2,0-0.4,0-0.5-0.1c-1.3-0.8-2.1-2.2-2-3.7l0.1-6.6c0-0.6,0.5-1,1-1c0.6,0,1,0.5,1,1l-0.1,6.6
		c0,0.8,0.4,1.6,1.1,2c0.5,0.3,0.6,0.9,0.3,1.4C169.6,55.6,169.2,55.8,168.9,55.8"/>
	<path class="st0" d="M172.2,60.2c-0.6,0-1.4-0.1-2.2-0.4c-0.5-0.2-0.8-0.8-0.6-1.3c0.2-0.5,0.8-0.8,1.3-0.6
		c2.4,0.9,3.2-0.4,3.3-0.6c0.2-0.5,0.8-0.7,1.3-0.5c0.5,0.2,0.7,0.8,0.5,1.3C175.4,58.9,174.3,60.2,172.2,60.2"/>
	<path class="st0" d="M206.2,43.6c-0.5,0-0.9-0.3-1-0.8c-0.6-2.9-0.3-5.3,1-7.2c1.8-2.7,4.9-3.3,5.1-3.3c0.5-0.1,1.1,0.3,1.2,0.8
		c0.1,0.5-0.3,1.1-0.8,1.2c0,0-2.4,0.5-3.8,2.5c-0.9,1.4-1.2,3.3-0.7,5.6c0.1,0.5-0.2,1.1-0.8,1.2C206.3,43.5,206.3,43.6,206.2,43.6
		"/>
	<path class="st0" d="M162.2,51.4c0.1,1.2-0.5,2.2-1.3,2.2c-0.8,0-1.4-0.9-1.5-2.1c-0.1-1.2,0.5-2.2,1.3-2.2
		C161.5,49.3,162.2,50.2,162.2,51.4"/>
	<path class="st0" d="M178.1,48.2c0.1,1.2-0.5,2.2-1.3,2.2c-0.8,0-1.4-0.9-1.5-2.1c-0.1-1.2,0.5-2.2,1.3-2.2
		C177.4,46.1,178.1,47,178.1,48.2"/>
	<path class="st2" d="M291.9,194.9H119.1c-4.9,0-8.8-3.9-8.8-8.8v-95c0-4.9,3.9-8.8,8.8-8.8h172.7c4.9,0,8.8,3.9,8.8,8.8v95
		C300.7,191,296.7,194.9,291.9,194.9"/>
	<path class="st0" d="M291.9,195.9H119.1c-5.4,0-9.8-4.4-9.8-9.8v-95c0-5.4,4.4-9.8,9.8-9.8h172.7c5.4,0,9.8,4.4,9.8,9.8v95
		C301.7,191.5,297.3,195.9,291.9,195.9 M119.1,83.2c-4.3,0-7.8,3.5-7.8,7.8v95c0,4.3,3.5,7.8,7.8,7.8h172.7c4.3,0,7.8-3.5,7.8-7.8
		v-95c0-4.3-3.5-7.8-7.8-7.8H119.1z"/>
	<path class="st0" d="M121.6,96c-2.3,0-4.2-1.9-4.2-4.2c0-2.3,1.9-4.2,4.2-4.2c2.3,0,4.2,1.9,4.2,4.2C125.8,94.1,123.9,96,121.6,96
		 M121.6,89.6c-1.2,0-2.2,1-2.2,2.2c0,1.2,1,2.2,2.2,2.2c1.2,0,2.2-1,2.2-2.2C123.8,90.6,122.8,89.6,121.6,89.6"/>
	<path class="st0" d="M132.3,96c-2.3,0-4.2-1.9-4.2-4.2c0-2.3,1.9-4.2,4.2-4.2c2.3,0,4.2,1.9,4.2,4.2C136.5,94.1,134.6,96,132.3,96
		 M132.3,89.6c-1.2,0-2.2,1-2.2,2.2c0,1.2,1,2.2,2.2,2.2c1.2,0,2.2-1,2.2-2.2C134.5,90.6,133.5,89.6,132.3,89.6"/>
	<path class="st0" d="M143,96c-2.3,0-4.2-1.9-4.2-4.2c0-2.3,1.9-4.2,4.2-4.2c2.3,0,4.2,1.9,4.2,4.2C147.2,94.1,145.3,96,143,96
		 M143,89.6c-1.2,0-2.2,1-2.2,2.2c0,1.2,1,2.2,2.2,2.2c1.2,0,2.2-1,2.2-2.2C145.2,90.6,144.2,89.6,143,89.6"/>
	<path class="st2" d="M109.9,119.6l0.1,6.9l-4.6-4.4c-1.8-1.7-2.9-4-3.1-6.4c-0.2-2.2,0.6-3.3,3.2-4.9l13.9-7.8l0.6,3.3
		c0.4,2.3-0.4,4.7-2.1,6.3L109.9,119.6z"/>
	<path class="st0" d="M109.9,127.5c-0.3,0-0.5-0.1-0.7-0.3l-4.6-4.4c-2-1.9-3.2-4.4-3.4-7.1c-0.3-2.9,1.1-4.3,3.7-5.9l13.9-7.9
		c0.3-0.2,0.6-0.2,0.9,0c0.3,0.1,0.5,0.4,0.6,0.7l0.6,3.3c0.5,2.7-0.4,5.4-2.4,7.2l-7.6,6.8l0,6.4c0,0.4-0.2,0.8-0.6,0.9
		C110.2,127.5,110.1,127.5,109.9,127.5 M118.6,104.5l-12.7,7.2c-2.4,1.5-2.8,2.3-2.7,4c0.2,2.2,1.2,4.3,2.8,5.8l2.9,2.8l0-4.5
		c0-0.3,0.1-0.6,0.3-0.8l7.9-7.2c1.5-1.3,2.2-3.4,1.8-5.4L118.6,104.5z"/>
	<path class="st2" d="M110,128.7l0.1,6.9l-4.6-4.4c-1.8-1.7-2.9-4-3.1-6.4c-0.2-2.2,1.1-4.2,3.2-4.9l17.7-6.3l0.3,4.5
		c0.1,2.3-1.1,4.5-3.2,5.6L110,128.7z"/>
	<path class="st0" d="M110,136.6c-0.3,0-0.5-0.1-0.7-0.3l-4.6-4.4c-2-1.9-3.2-4.4-3.4-7.1c-0.2-2.7,1.3-5.1,3.9-6l17.7-6.2
		c0.3-0.1,0.6-0.1,0.9,0.1c0.3,0.2,0.4,0.5,0.4,0.8l0.3,4.5c0.2,2.7-1.3,5.3-3.7,6.6l-9.7,4.7l0,6.2c0,0.4-0.2,0.8-0.6,0.9
		C110.3,136.5,110.1,136.6,110,136.6 M122.2,114.9l-16.4,5.8c-1.7,0.6-2.7,2.2-2.5,3.9c0.2,2.2,1.2,4.3,2.8,5.8l2.9,2.8l0-4.5
		c0-0.4,0.2-0.7,0.6-0.9l10.3-5c1.7-0.9,2.7-2.7,2.6-4.7L122.2,114.9z"/>
	<path class="st2" d="M110,137.7l0.1,6.9l-4.6-4.4c-1.8-1.7-2.9-4-3.1-6.4c-0.2-2.2,1.1-4.2,3.2-4.9l16.2-5.7l0.3,4.5
		c0.1,2.3-1.1,4.5-3.2,5.6L110,137.7z"/>
	<path class="st0" d="M110.1,145.6c-0.3,0-0.5-0.1-0.7-0.3l-4.6-4.4c-2-1.9-3.2-4.4-3.4-7.1c-0.2-2.7,1.3-5.1,3.9-6l16.2-5.6
		c0.3-0.1,0.6-0.1,0.9,0.1c0.3,0.2,0.4,0.5,0.4,0.8l0.3,4.5c0.2,2.7-1.3,5.3-3.7,6.6l-8.2,4.1l0,6.3c0,0.4-0.2,0.8-0.6,0.9
		C110.3,145.6,110.2,145.6,110.1,145.6 M120.8,124.6l-14.9,5.2c-1.7,0.6-2.7,2.2-2.5,3.9c0.2,2.2,1.2,4.3,2.8,5.8l2.9,2.8l0-4.5
		c0-0.4,0.2-0.7,0.6-0.9l8.8-4.4c1.7-0.9,2.8-2.7,2.6-4.7L120.8,124.6z"/>
	<path class="st2" d="M110.1,146.3l0.1,6.9l-4.6-4.4c-1.8-1.7-2.9-4-3.1-6.4c-0.2-2.2,1.1-4.2,3.2-4.9l14-4.7l0.3,4.5
		c0.1,2.3-1.1,4.5-3.2,5.6L110.1,146.3z"/>
	<path class="st0" d="M110.1,154.2c-0.3,0-0.5-0.1-0.7-0.3l-4.6-4.4c-2-1.9-3.2-4.4-3.4-7.1c-0.2-2.7,1.3-5.1,3.9-6l14-4.7
		c0.3-0.1,0.6-0.1,0.9,0.1c0.3,0.2,0.4,0.5,0.4,0.8l0.3,4.5c0.2,2.7-1.3,5.3-3.7,6.6l-6.1,3.2l0,6.3c0,0.4-0.2,0.8-0.6,0.9
		C110.4,154.2,110.3,154.2,110.1,154.2 M118.7,134.1l-12.8,4.3c-1.6,0.6-2.7,2.1-2.5,3.9c0.2,2.2,1.2,4.3,2.8,5.8l2.9,2.8l0-4.5
		c0-0.4,0.2-0.7,0.5-0.9l6.6-3.5c1.7-0.9,2.8-2.7,2.7-4.7L118.7,134.1z"/>
	<path class="st2" d="M220.8,78.8l-2.2-3.2c-0.8-1.2-2.1-1.8-3.5-1.8h-4.5c-1.7,0-3.2,1-3.9,2.5l-2,4.2c-0.6,1.2-0.5,2.6,0.1,3.8
		l3.4,6.5h6c1.5,0,2.9-0.8,3.7-2.1l3.1-5.3C221.8,82,221.8,80.1,220.8,78.8"/>
	<path class="st0" d="M214.2,91.8h-6c-0.4,0-0.7-0.2-0.9-0.5l-3.4-6.5c-0.8-1.4-0.8-3.2-0.1-4.7l2-4.2c0.9-1.9,2.8-3.1,4.8-3.1h4.5
		c1.7,0,3.4,0.8,4.3,2.3l2.2,3.2c1.2,1.7,1.3,3.9,0.2,5.7l-3.1,5.3C217.8,90.8,216,91.8,214.2,91.8 M208.8,89.8h5.4
		c1.2,0,2.2-0.6,2.8-1.6l3.1-5.3c0.7-1.1,0.6-2.5-0.1-3.6l-2.2-3.2c-0.6-0.9-1.6-1.4-2.7-1.4h-4.5c-1.3,0-2.5,0.8-3,1.9l-1.9,4.2
		c-0.4,0.9-0.4,2,0.1,2.9L208.8,89.8z"/>
	<path class="st2" d="M225.3,82.1l7.8,0.1l-5-5.2c-1.9-2-4.5-3.3-7.3-3.5c-2.5-0.2-4.8,1.3-5.6,3.6l-7.1,20.2l5.2,0.3
		c2.7,0.2,5.2-1.3,6.4-3.6L225.3,82.1z"/>
	<path class="st0" d="M213.6,98.5c-0.2,0-0.3,0-0.5,0l-5.2-0.3c-0.3,0-0.6-0.2-0.8-0.4s-0.2-0.6-0.1-0.9l7.1-20.2
		c0.9-2.8,3.7-4.6,6.6-4.3c3,0.3,5.9,1.7,8,3.9l5,5.2c0.3,0.3,0.4,0.7,0.2,1.1c-0.2,0.4-0.5,0.6-0.9,0.6h0l-7.2-0.1l-5.4,11.1
		C219.2,96.8,216.5,98.5,213.6,98.5 M209.4,96.2l3.8,0.2c2.3,0.1,4.4-1.1,5.5-3.1l5.6-11.7c0.2-0.3,0.5-0.6,0.9-0.6h0l5.5,0
		l-3.4-3.5c-1.8-1.9-4.2-3-6.7-3.2c-2-0.2-3.9,1-4.6,3L209.4,96.2z"/>
	<path class="st2" d="M235.6,82.2l7.8,0.1l-5-5.2c-1.9-2-4.5-3.3-7.3-3.5c-2.5-0.2-4.8,1.3-5.6,3.6l-6.4,18.4l5.2,0.3
		c2.7,0.2,5.2-1.3,6.4-3.6L235.6,82.2z"/>
	<path class="st0" d="M224.6,96.8c-0.2,0-0.3,0-0.5,0l-5.2-0.3c-0.3,0-0.6-0.2-0.8-0.4c-0.2-0.3-0.2-0.6-0.1-0.9l6.4-18.4
		c0.9-2.8,3.7-4.6,6.6-4.3c3,0.3,5.9,1.7,8,3.9l5,5.2c0.3,0.3,0.4,0.7,0.2,1.1c-0.2,0.4-0.5,0.6-0.9,0.6h0l-7.2-0.1l-4.7,9.4
		C230.2,95.2,227.5,96.8,224.6,96.8 M220.4,94.6l3.8,0.2c2.3,0.1,4.4-1.1,5.5-3.1l5-10c0.2-0.3,0.5-0.6,0.9-0.6h0l5.5,0l-3.4-3.5
		c-1.8-1.9-4.1-3-6.7-3.2c-2-0.2-3.9,1-4.6,3L220.4,94.6z"/>
	<path class="st2" d="M245.4,82.2l7.8,0.1l-5-5.2c-1.9-2-4.5-3.3-7.3-3.5c-2.5-0.2-4.8,1.3-5.6,3.6l-5.4,16l5.2,0.3
		c2.7,0.2,5.2-1.3,6.4-3.6L245.4,82.2z"/>
	<path class="st0" d="M235.5,94.5c-0.2,0-0.3,0-0.5,0l-5.2-0.3c-0.3,0-0.6-0.2-0.8-0.4c-0.2-0.3-0.2-0.6-0.1-0.9l5.4-16
		c0.9-2.8,3.7-4.6,6.6-4.3c3,0.3,5.9,1.7,8,3.9l5,5.2c0.3,0.3,0.4,0.7,0.2,1.1c-0.2,0.4-0.5,0.6-0.9,0.6h0l-7.2-0.1l-3.7,7
		C241,92.9,238.3,94.5,235.5,94.5 M231.3,92.2l3.9,0.2c2.3,0.1,4.4-1.1,5.5-3.1l3.9-7.6c0.2-0.3,0.5-0.5,0.9-0.5l5.5,0l-3.4-3.5
		c-1.8-1.9-4.1-3-6.7-3.2c-2-0.2-3.9,1-4.6,3L231.3,92.2z"/>
	<rect x="199.9" y="159.6" class="st0" width="10.2" height="12.7"/>
	<rect x="220.3" y="136.7" class="st1" width="10.2" height="35.6"/>
	<rect x="240.6" y="151.9" class="st0" width="10.2" height="20.4"/>
	<rect x="261" y="113.8" class="st1" width="10.2" height="58.5"/>
	<path class="st0" d="M174.2,114.8h-35.7c-0.6,0-1-0.4-1-1c0-0.6,0.4-1,1-1h35.7c0.6,0,1,0.4,1,1
		C175.2,114.3,174.7,114.8,174.2,114.8"/>
	<path class="st0" d="M156.3,120.3h-17.8c-0.6,0-1-0.4-1-1c0-0.6,0.4-1,1-1h17.8c0.6,0,1,0.4,1,1
		C157.3,119.8,156.9,120.3,156.3,120.3"/>
	<path class="st2" d="M194,164.1c0-0.2-0.1-0.4-0.2-0.6c-0.9-1.1-2-2-3.3-2.4l-0.2-0.9c-0.6-3.4-3.4-6-6.7-6.2c-0.5,0-1,0-1.5,0.1
		c0,0,0.1,0,0.1-0.1c0.5-0.4,0.6-1.1,0.2-1.6l-0.3-0.4c-1-1.3-2.3-2.2-3.7-2.8l8.5-15.1c1.1-2,0.9-4.3-0.5-6.1c-1-1.2-2.5-2-4.1-2
		c-1.6,0-3.1,0.7-4.2,1.9l-12.8,14.6l0.2-3.4c0.1-2.8-1.7-5.2-4.4-5.8c-3-0.6-6,1.3-6.6,4.3l-5.4,24.6c0,0.1,0,0.2,0,0.3l-11.3,14.7
		l-11.9,15.2c-0.2,0.2-0.3,0.6-0.2,0.9c0,0.3,0.2,0.6,0.5,0.8l24.9,17.3c0.2,0.1,0.4,0.2,0.7,0.2c0.3,0,0.7-0.2,0.9-0.5l7.7-10.2
		l15.8-11.5c4.7-3.4,7.9-8.4,9-14.1l4.5,0.2c0.2,0,0.3,0,0.4-0.1c2.8-1,4.5-3.6,4.4-6.6L194,164.1z"/>
	<path class="st0" d="M150.2,163.5c-0.1,0-0.1,0-0.2,0c-0.5-0.1-0.9-0.7-0.8-1.2l5.4-24.6c0.6-2.9,3.5-4.8,6.4-4.2
		c2.6,0.6,4.5,2.9,4.3,5.6l-0.3,6.8c0,0.6-0.5,1-1,0.9c-0.6,0-1-0.5-1-1l0.3-6.8c0.1-1.7-1.1-3.2-2.7-3.5c-1.8-0.4-3.7,0.8-4.1,2.6
		l-5.4,24.6C151,163.2,150.6,163.5,150.2,163.5"/>
	<path class="st0" d="M151.5,211.5c-0.2,0-0.4-0.1-0.6-0.2L126.1,194c-0.2-0.2-0.4-0.4-0.4-0.7c0-0.3,0-0.6,0.2-0.8l11.9-15.2
		l20.7-26.9l19.7-22.6c1-1.2,2.5-1.8,4.1-1.8c1.6,0,3,0.7,4,1.9c1.4,1.7,1.6,4,0.5,5.9l-9.1,16.3c-0.3,0.5-0.9,0.7-1.4,0.4
		c-0.5-0.3-0.7-0.9-0.4-1.4L185,133c0.7-1.2,0.5-2.6-0.3-3.7c-0.6-0.7-1.5-1.2-2.5-1.2c-1,0-1.9,0.4-2.5,1.1l-19.6,22.5l-20.7,26.8
		L128.1,193l23.3,16.1l7.2-9.5c0.1-0.1,0.1-0.1,0.2-0.2l15.9-11.6c4.4-3.2,7.4-8,8.2-13.4c0-0.1,0-0.1,0.1-0.2
		c0-0.3,0.1-0.6,0.4-0.7l2.8-2.2c0.4-0.3,1-0.3,1.4,0.1c0.4,0.4,0.3,1-0.1,1.4l-1.2,1l2.4,0.6c1.8-0.8,3.7-3.3,3.4-5.2l-0.2-4.7
		c-0.9-1.1-2.2-1.7-3.6-1.8c-1.6-0.1-3.1,0.6-4.1,1.7l-4.2,4.8c-0.4,0.4-1,0.5-1.4,0.1c-0.4-0.4-0.5-1-0.1-1.4l4.2-4.8
		c1.4-1.6,3.6-2.6,5.7-2.4c2.1,0.1,4,1.1,5.2,2.8c0.1,0.2,0.2,0.4,0.2,0.6l0.2,4.9c0.4,2.9-2.4,6.5-5,7.4c-0.2,0.1-0.4,0.1-0.6,0
		l-3.8-0.9c-1.1,5.6-4.2,10.6-8.9,14L160,200.9l-7.7,10.2C152.1,211.4,151.8,211.5,151.5,211.5"/>
	<path class="st0" d="M165.5,158.8c-0.2,0-0.5-0.1-0.7-0.2c-0.4-0.4-0.5-1-0.1-1.4l4.8-5.6c1.6-1.9,4.1-2.9,6.5-2.8
		c2.4,0.1,4.6,1.3,6,3.2c0,0,0.1,0.1,0.1,0.1l0.8,1.5c0.3,0.5,0.1,1.1-0.4,1.4c-0.5,0.3-1.1,0.1-1.4-0.4l-0.8-1.4
		c-1.1-1.4-2.7-2.3-4.4-2.3c-1.9-0.1-3.7,0.7-4.9,2.1l-4.8,5.6C166,158.7,165.7,158.8,165.5,158.8"/>
	<path class="st0" d="M172.9,164c-0.2,0-0.5-0.1-0.7-0.2c-0.4-0.4-0.5-1-0.1-1.4l4.8-5.6c1.6-1.9,4.1-2.9,6.5-2.8
		c3.3,0.2,6,2.8,6.6,6.1l0.2,1.3c0.1,0.5-0.3,1.1-0.8,1.2c-0.5,0.1-1.1-0.3-1.2-0.8l-0.2-1.3c-0.4-2.4-2.4-4.3-4.7-4.4
		c-1.9-0.1-3.7,0.7-5,2.1l-4.8,5.6C173.5,163.9,173.2,164,172.9,164"/>
	<polygon class="st2" points="100.8,209.8 127.4,188.5 156.2,210.7 148.2,238.1 104.3,238.1 	"/>
	<path class="st2" d="M113.2,238.6H1v-62.3l21.2-4.1l3.6-13.4l42.1,9.3l0.4,10.2l13.9,7.3c11.9,5.1,23.1,14.9,25.9,28.4L113.2,238.6
		z"/>
	<polygon class="st2" points="100.8,209.8 127.4,188.5 156.2,210.7 148.2,238.1 113,238.1 	"/>
	<path class="st0" d="M148.2,239.1H113c-0.6,0-1-0.4-1-1s0.4-1,1-1h34.5L155,211l-27.7-21.3l-26,20.8c-0.4,0.3-1.1,0.3-1.4-0.2
		c-0.3-0.4-0.3-1.1,0.2-1.4l26.6-21.3c0.4-0.3,0.9-0.3,1.2,0l28.8,22.2c0.3,0.3,0.5,0.7,0.4,1.1l-8,27.5
		C149,238.8,148.6,239.1,148.2,239.1"/>
	<polygon class="st2" points="25,178.9 65.1,174.1 66,133.8 28.6,132.9 	"/>
	<path class="st0" d="M25,179.9c-0.3,0-0.5-0.1-0.7-0.3c-0.2-0.2-0.3-0.5-0.3-0.8l3.6-46c0-0.5,0.5-0.9,1-0.9l37.4,0.9
		c0.6,0,1,0.5,1,1l-0.9,40.3c0,0.5-0.4,0.9-0.9,1l-40.1,4.8C25.1,179.9,25.1,179.9,25,179.9 M29.5,134l-3.4,43.8l38-4.6l0.9-38.4
		L29.5,134z"/>
	<path class="st0" d="M43.2,83c0,0,17.9,14.9,22.6,13c4.7-1.9,16-8.8,13-17.4c-3-8.6-5.7-5.6-9.5-4.6c-3.8,1-5.1-8.3-7.6-8.1
		c-2.5,0.2-5,2-9.4,5.9C47.7,75.7,43.2,83,43.2,83"/>
	<path class="st2" d="M37.8,147.7c-8.6-2.7-16.3-8.8-21-17.4c-9.6-17.5-3.4-38.9,13.4-48.6C57.7,65.8,75.5,88.4,77.5,94
		c0.5,1.3,0.9,2.6,1.4,3.8c1,2,1.8,4,2.4,6c1.9,4.2,4,7.2,6.9,8.2c4.5,1.5,2,36.1-23.8,33.5L37.8,147.7z"/>
	<path class="st0" d="M37.8,148.7c-0.1,0-0.2,0-0.3,0c-9.2-2.9-16.9-9.3-21.6-17.9c-9.8-17.9-3.8-39.8,13.7-49.9
		c10.4-6,20.6-7.3,30.1-3.8c10.4,3.9,17.3,12.7,18.7,16.6c0.5,1.3,0.9,2.5,1.3,3.7c1,1.9,1.8,4,2.4,6c2,4.4,4,6.8,6.3,7.6
		c2.8,0.9,3,8,1.7,14.2c-1.3,6-4,11.4-7.7,15.1c-4.7,4.8-10.9,6.9-18.2,6.2c-0.6-0.1-1-0.5-0.9-1.1c0.1-0.6,0.5-1,1.1-0.9
		c17.6,1.7,22.6-14.5,23.7-19.5c1.6-7.3,0.4-11.8-0.3-12.1c-2.9-1-5.2-3.7-7.5-8.7c0,0,0-0.1,0-0.1c-0.6-2-1.4-3.9-2.3-5.8
		c0,0,0-0.1,0-0.1c-0.4-1.2-0.9-2.5-1.4-3.8c-0.9-2.6-7-11.5-17.5-15.4c-9-3.3-18.5-2.1-28.4,3.6c-16.6,9.6-22.3,30.3-13,47.2
		c4.5,8.2,11.7,14.2,20.5,17c0.5,0.2,0.8,0.7,0.7,1.3C38.6,148.4,38.2,148.7,37.8,148.7"/>
	<path class="st0" d="M23.9,75.6c11.3-6.2,24.6-5.8,35.5-0.2c-3.4,0.8-6.7,2-9.9,3.8c-21.5,11.8-28.3,41-15,65.3
		c0.7,1.3,1.5,2.6,2.4,3.9c-11.2-2.1-21.5-9.1-27.5-20.1C-1,109.3,5.5,85.7,23.9,75.6"/>
	<path class="st0" d="M53.7,95.4c-1.3-5.3-8-4.6-3.5-7.2c8.6-5,11.6-15.2,11.6-15.2c-21.1-5.7-42.9,25.8-42.9,25.8l5.4,42.1l3.3,9.8
		l10.6-0.9c3.5-0.3,6.5-2.9,7.2-6.3l3.9-18.1c-0.2,0.1-0.3,0.2-0.5,0.3c-4.1,2.2-9.1,0.7-11.4-3.3c-2.2-4.1-0.7-9.1,3.3-11.4
		c4.1-2.2,9.1-0.7,11.4,3.3c0,0,0,0,0,0.1c1.1-0.4,3.7-1.6,2.8-3.7C54,107.9,55,100.7,53.7,95.4"/>
	<path class="st0" d="M82.7,129.3c0,0-0.1,0-0.1,0c-3.7-0.4-5.5-3.7-5.6-3.8c-0.3-0.5-0.1-1.1,0.4-1.4c0.5-0.3,1.1-0.1,1.4,0.4
		c0,0,1.5,2.5,4,2.8c0.6,0.1,0.9,0.6,0.9,1.1C83.6,128.9,83.2,129.3,82.7,129.3"/>
	<path class="st0" d="M48.7,119c-0.4,0-0.8-0.3-0.9-0.7c0,0-1-2.7-3.6-3.4c-0.5-0.1-0.8-0.7-0.7-1.2c0.1-0.5,0.7-0.9,1.2-0.7
		c3.5,1,4.9,4.5,4.9,4.7c0.2,0.5-0.1,1.1-0.6,1.3C48.9,119,48.8,119,48.7,119"/>
	<path class="st0" d="M67.2,101.7c-0.5,0-0.9-0.4-1-0.9c-0.2-1.7,0.9-4,2.7-5.6c2-1.7,4.4-2.3,6.7-1.6c0.5,0.1,0.8,0.7,0.7,1.2
		c-0.1,0.5-0.7,0.8-1.2,0.7c-2.3-0.6-4,0.5-4.9,1.2c-1.4,1.2-2.2,2.9-2,3.8c0.1,0.5-0.3,1.1-0.9,1.1
		C67.3,101.7,67.2,101.7,67.2,101.7"/>
	<path class="st0" d="M74.9,106.5c0.6,0.9,1.6,1.2,2.3,0.8c0.6-0.5,0.6-1.5,0-2.4c-0.6-0.9-1.7-1.2-2.3-0.8
		C74.2,104.5,74.2,105.6,74.9,106.5"/>
	<path class="st0" d="M65.8,144.6l-0.3,12.9c-5.4-2.3-10.2-6.4-13.2-12c-1.2-2.2-2.1-4.6-2.7-6.9C54.2,142.2,59.9,144.3,65.8,144.6"
		/>
	<path class="st2" d="M1,176.3l21.2-4.1l3.6-13.4l42.1,9.3l0.4,10.2l13.9,7.3c11.9,5.1,23.1,14.9,25.9,28.4l5.1,24.6L1,176.3z"/>
	<path class="st0" d="M113.2,239.6c-0.5,0-0.9-0.3-1-0.8l-5.1-24.6c-2.4-11.5-11.8-21.8-25.3-27.7l-13.9-7.3
		c-0.3-0.2-0.5-0.5-0.5-0.8l-0.4-9.4L26.5,160l-3.4,12.5c-0.1,0.4-0.4,0.6-0.8,0.7l-21.2,4.1c-0.5,0.1-1.1-0.2-1.2-0.8
		c-0.1-0.5,0.2-1.1,0.8-1.2l20.6-4l3.5-12.8c0.1-0.5,0.7-0.8,1.2-0.7l42.1,9.3c0.4,0.1,0.8,0.5,0.8,0.9l0.4,9.6l13.4,7
		c20.2,8.8,25.2,23.3,26.4,29.1l5.1,24.6c0.1,0.5-0.2,1.1-0.8,1.2C113.3,239.6,113.3,239.6,113.2,239.6"/>
</g>
</svg>
